<svg width="42" height="62" viewBox="0 0 42 62" fill="none" xmlns="http://www.w3.org/2000/svg">
  <circle cx="21" cy="20.5" r="20" fill="#2D2E32" />
  <path
    d="M18.3786 20.045C18.3786 19.5489 18.5257 19.0639 18.8013 18.6514C19.0769 18.2389 19.4687 17.9174 19.927 17.7276C20.3854 17.5377 20.8897 17.488 21.3763 17.5848C21.8629 17.6816 22.3098 17.9205 22.6606 18.2713C23.0114 18.6221 23.2503 19.0691 23.3471 19.5556C23.4439 20.0422 23.3942 20.5466 23.2044 21.0049C23.0145 21.4632 22.693 21.855 22.2805 22.1306C21.868 22.4062 21.3831 22.5534 20.8869 22.5534C20.5575 22.5535 20.2313 22.4886 19.9269 22.3626C19.6225 22.2366 19.346 22.0518 19.113 21.8189C18.8801 21.586 18.6953 21.3094 18.5693 21.005C18.4433 20.7006 18.3785 20.3744 18.3786 20.045ZM20.8869 9.50562C18.5467 9.507 16.2734 10.2864 14.4246 11.7211C12.5758 13.1559 11.2565 15.1646 10.6743 17.4312C10.665 17.4655 10.6615 17.5011 10.6637 17.5366C10.6637 17.6708 10.717 17.7995 10.8119 17.8943C10.9068 17.9892 11.0355 18.0425 11.1696 18.0425H15.417C15.513 18.0435 15.6072 18.016 15.6876 17.9635C15.768 17.9109 15.831 17.8358 15.8687 17.7474C16.3928 16.6009 17.2934 15.6683 18.4208 15.1043C19.5482 14.5404 20.8346 14.3791 22.0663 14.6473C23.2981 14.9155 24.401 15.597 25.1919 16.5786C25.9828 17.5602 26.414 18.7829 26.414 20.0435C26.414 21.3041 25.9828 22.5267 25.1919 23.5084C24.401 24.49 23.2981 25.1715 22.0663 25.4397C20.8346 25.7079 19.5482 25.5466 18.4208 24.9827C17.2934 24.4187 16.3928 23.486 15.8687 22.3396C15.8281 22.2534 15.7643 22.1802 15.6846 22.1281C15.6049 22.076 15.5122 22.0471 15.417 22.0445H11.1696C11.0355 22.0445 10.9068 22.0978 10.8119 22.1926C10.717 22.2875 10.6637 22.4162 10.6637 22.5503C10.6637 22.582 10.6743 22.6136 10.6743 22.6557C11.1628 24.5665 12.1777 26.3018 13.6035 27.6644C15.0293 29.027 16.8088 29.9622 18.7397 30.3637C20.6706 30.7652 22.6754 30.6168 24.5262 29.9355C26.377 29.2541 27.9994 28.0672 29.2091 26.5095C30.4188 24.9519 31.1672 23.0861 31.3692 21.1243C31.5711 19.1624 31.2186 17.1833 30.3516 15.4119C29.4846 13.6405 28.138 12.1478 26.4648 11.1037C24.7917 10.0596 22.8591 9.50594 20.8869 9.50562Z"
    fill="#064C64" />
  <path
    d="M5.28027 55.8379H8.1123C8.1123 55.8867 8.11393 55.9551 8.11719 56.043C8.12695 56.2741 8.13184 56.4303 8.13184 56.5117C8.13184 57.5176 7.84375 58.2988 7.26758 58.8555C6.69141 59.4121 5.87923 59.6904 4.83105 59.6904C4.24512 59.6904 3.72266 59.6042 3.26367 59.4316C2.80469 59.2591 2.40267 58.9987 2.05762 58.6504C1.71908 58.3053 1.45866 57.9001 1.27637 57.4346C1.09733 56.9691 1.00781 56.471 1.00781 55.9404C1.00781 55.4001 1.09896 54.902 1.28125 54.4463C1.4668 53.9906 1.74023 53.5885 2.10156 53.2402C2.44987 52.8984 2.8584 52.638 3.32715 52.459C3.7959 52.2799 4.2972 52.1904 4.83105 52.1904C5.39421 52.1904 5.89714 52.293 6.33984 52.498C6.78581 52.7031 7.18294 53.0173 7.53125 53.4404L6.68164 54.0801C6.44076 53.8001 6.16895 53.5918 5.86621 53.4551C5.56348 53.3184 5.22493 53.25 4.85059 53.25C4.07585 53.25 3.44271 53.499 2.95117 53.9971C2.46289 54.4919 2.21875 55.1364 2.21875 55.9307C2.21875 56.738 2.46289 57.3939 2.95117 57.8984C3.44271 58.3997 4.0791 58.6504 4.86035 58.6504C5.52441 58.6504 6.04688 58.4958 6.42773 58.1865C6.80859 57.8773 6.99902 57.4557 6.99902 56.9219V56.8193H5.28027V55.8379ZM13.625 59.5H12.5654V58.8994C12.3766 59.1663 12.1553 59.3649 11.9014 59.4951C11.6507 59.6253 11.3626 59.6904 11.0371 59.6904C10.3828 59.6904 9.86686 59.4674 9.48926 59.0215C9.11491 58.5723 8.92773 57.9587 8.92773 57.1807C8.92773 56.4417 9.11979 55.846 9.50391 55.3936C9.88802 54.9378 10.3893 54.71 11.0078 54.71C11.3854 54.71 11.7077 54.7897 11.9746 54.9492C12.2448 55.1055 12.4417 55.3317 12.5654 55.6279V54.8711H13.625V59.5ZM12.5947 57.1709C12.5947 56.6924 12.4824 56.3197 12.2578 56.0527C12.0365 55.7858 11.7256 55.6523 11.3252 55.6523C10.9248 55.6523 10.609 55.7907 10.3779 56.0674C10.1501 56.3408 10.0361 56.7217 10.0361 57.21C10.0361 57.7015 10.1468 58.0807 10.3682 58.3477C10.5895 58.6146 10.902 58.748 11.3057 58.748C11.6865 58.748 11.9958 58.6032 12.2334 58.3135C12.4743 58.0238 12.5947 57.6429 12.5947 57.1709ZM15.3389 59.5V55.7988H14.5283V54.8711H15.3389V53.1182H16.3984V54.8711H17.209V55.7988H16.3984V59.5H15.3389ZM17.5947 58.6602L18.4736 58.1816C18.5387 58.4128 18.6592 58.5885 18.835 58.709C19.0107 58.8294 19.237 58.8896 19.5137 58.8896C19.7513 58.8896 19.9368 58.8359 20.0703 58.7285C20.207 58.6178 20.2754 58.4681 20.2754 58.2793C20.2754 58.0286 20.0345 57.8138 19.5527 57.6348C19.39 57.5762 19.2646 57.5273 19.1768 57.4883C18.682 57.2832 18.3353 57.0749 18.1367 56.8633C17.9414 56.6517 17.8438 56.3945 17.8438 56.0918C17.8438 55.6784 18.0049 55.3431 18.3271 55.0859C18.6527 54.8288 19.0824 54.7002 19.6162 54.7002C19.9743 54.7002 20.2803 54.7669 20.5342 54.9004C20.7913 55.0306 20.9785 55.2178 21.0957 55.4619L20.3438 55.9795C20.2884 55.833 20.1908 55.7174 20.0508 55.6328C19.9141 55.5449 19.7546 55.501 19.5723 55.501C19.3704 55.501 19.2077 55.5498 19.084 55.6475C18.9635 55.7419 18.9033 55.8688 18.9033 56.0283C18.9033 56.2692 19.1768 56.4889 19.7236 56.6875C19.8962 56.7493 20.0296 56.7998 20.124 56.8389C20.5505 57.0081 20.8548 57.2002 21.0371 57.415C21.2227 57.6266 21.3154 57.8919 21.3154 58.2109C21.3154 58.6732 21.1478 59.0361 20.8125 59.2998C20.4772 59.5602 20.015 59.6904 19.4258 59.6904C18.9733 59.6904 18.5973 59.6058 18.2979 59.4365C17.9984 59.2673 17.764 59.0085 17.5947 58.6602ZM23.4102 57.1709C23.4102 57.6429 23.5306 58.0238 23.7715 58.3135C24.0156 58.6032 24.3298 58.748 24.7139 58.748C25.1143 58.748 25.4235 58.6146 25.6416 58.3477C25.863 58.0807 25.9736 57.7015 25.9736 57.21C25.9736 56.7217 25.8581 56.3408 25.627 56.0674C25.3991 55.7907 25.085 55.6523 24.6846 55.6523C24.2842 55.6523 23.9717 55.7858 23.7471 56.0527C23.5225 56.3197 23.4102 56.6924 23.4102 57.1709ZM23.4443 51.9316V55.6279C23.568 55.335 23.765 55.1087 24.0352 54.9492C24.3086 54.7897 24.6341 54.71 25.0117 54.71C25.627 54.71 26.125 54.9378 26.5059 55.3936C26.89 55.846 27.082 56.4417 27.082 57.1807C27.082 57.9587 26.8932 58.5723 26.5156 59.0215C26.1413 59.4674 25.627 59.6904 24.9727 59.6904C24.6471 59.6904 24.3574 59.6253 24.1035 59.4951C23.8529 59.3649 23.6331 59.1663 23.4443 58.8994V59.5H22.3848V51.9316H23.4443ZM29.001 61.6777H27.9121L29.1816 59.0996L27.4824 54.8711H28.6543L29.5039 57.2686C29.5527 57.415 29.5951 57.5648 29.6309 57.7178C29.6699 57.8675 29.7008 58.0205 29.7236 58.1768C29.766 58.014 29.8669 57.7552 30.0264 57.4004L30.0508 57.3418L31.1934 54.8711H32.3408L29.001 61.6777ZM32.1895 58.958C32.1895 58.779 32.2513 58.626 32.375 58.499C32.4987 58.3721 32.6501 58.3086 32.8291 58.3086C33.0081 58.3086 33.1595 58.3721 33.2832 58.499C33.4069 58.626 33.4688 58.779 33.4688 58.958C33.4688 59.1338 33.4069 59.2835 33.2832 59.4072C33.1595 59.5277 33.0081 59.5879 32.8291 59.5879C32.6501 59.5879 32.4987 59.5277 32.375 59.4072C32.2513 59.2835 32.1895 59.1338 32.1895 58.958ZM34.9775 52.8691C34.9775 52.6901 35.0426 52.5355 35.1729 52.4053C35.3063 52.2751 35.4642 52.21 35.6465 52.21C35.8353 52.21 35.9915 52.2734 36.1152 52.4004C36.2422 52.5241 36.3057 52.6803 36.3057 52.8691C36.3057 53.0579 36.2422 53.2174 36.1152 53.3477C35.9883 53.4746 35.832 53.5381 35.6465 53.5381C35.4642 53.5381 35.3063 53.473 35.1729 53.3428C35.0426 53.2093 34.9775 53.0514 34.9775 52.8691ZM35.1191 61.6777V54.8711H36.1787V61.6777H35.1191ZM37.165 58.6602L38.0439 58.1816C38.109 58.4128 38.2295 58.5885 38.4053 58.709C38.5811 58.8294 38.8073 58.8896 39.084 58.8896C39.3216 58.8896 39.5072 58.8359 39.6406 58.7285C39.7773 58.6178 39.8457 58.4681 39.8457 58.2793C39.8457 58.0286 39.6048 57.8138 39.123 57.6348C38.9603 57.5762 38.835 57.5273 38.7471 57.4883C38.2523 57.2832 37.9056 57.0749 37.707 56.8633C37.5117 56.6517 37.4141 56.3945 37.4141 56.0918C37.4141 55.6784 37.5752 55.3431 37.8975 55.0859C38.223 54.8288 38.6527 54.7002 39.1865 54.7002C39.5446 54.7002 39.8506 54.7669 40.1045 54.9004C40.3617 55.0306 40.5488 55.2178 40.666 55.4619L39.9141 55.9795C39.8587 55.833 39.7611 55.7174 39.6211 55.6328C39.4844 55.5449 39.3249 55.501 39.1426 55.501C38.9408 55.501 38.778 55.5498 38.6543 55.6475C38.5339 55.7419 38.4736 55.8688 38.4736 56.0283C38.4736 56.2692 38.7471 56.4889 39.2939 56.6875C39.4665 56.7493 39.5999 56.7998 39.6943 56.8389C40.1208 57.0081 40.4251 57.2002 40.6074 57.415C40.793 57.6266 40.8857 57.8919 40.8857 58.2109C40.8857 58.6732 40.7181 59.0361 40.3828 59.2998C40.0475 59.5602 39.5853 59.6904 38.9961 59.6904C38.5436 59.6904 38.1676 59.6058 37.8682 59.4365C37.5687 59.2673 37.3343 59.0085 37.165 58.6602Z"
    fill="white" />
</svg>