<svg width="40" height="40" viewBox="0 0 41 41" fill="none" xmlns="http://www.w3.org/2000/svg">
<circle cx="20" cy="20.5" r="20" fill="#2D2E32"/>
<path d="M12.4431 28.9772L10.7523 10.0056H29.3377L27.6446 28.9742L20.0337 31.0844L12.4431 28.9772Z" fill="#1572B6"/>
<path d="M20.045 29.4719L26.1955 27.7667L27.6424 11.5572H20.045V29.4719Z" fill="#33A9DC"/>
<path d="M20.045 18.4304H23.124L23.3363 16.0477H20.045V13.7208H25.8793L25.8236 14.3448L25.2522 20.7573H20.045V18.4304V18.4304Z" fill="white"/>
<path d="M20.0593 24.4732L20.0488 24.4762L17.4576 23.7761L17.292 21.9204H14.956L15.282 25.5738L20.048 26.8973L20.0593 26.8942V24.4732V24.4732Z" fill="#EBEBEB"/>
<path d="M22.926 20.6587L22.646 23.7746L20.051 24.4747V26.8957L24.8208 25.5738L24.8562 25.1808L25.2605 20.6587H22.926Z" fill="white"/>
<path d="M20.0533 13.7208V16.0477H14.4328L14.3861 15.5245L14.28 14.3448L14.2242 13.7208H20.0533V13.7208Z" fill="#EBEBEB"/>
<path d="M20.045 18.4304V20.7573H17.4862L17.4395 20.2341L17.3341 19.0544L17.2784 18.4304H20.045V18.4304Z" fill="#EBEBEB"/>
</svg>
