<svg width="41" height="41" viewBox="0 0 41 41" fill="none" xmlns="http://www.w3.org/2000/svg">
  <circle cx="20.5" cy="20.5" r="20" fill="#2D2E32" />
  <path
    d="M22.2421 17.1078H24.7582V19.681H26.0318C26.6267 19.6783 27.2173 19.5794 27.7807 19.3882C28.0767 19.2901 28.3617 19.1614 28.631 19.0041C28.2864 18.5272 28.0818 17.9635 28.0404 17.3765C27.9348 16.52 28.1553 15.6551 28.6581 14.9537L28.9229 14.6479L29.2377 14.9016C30.0731 15.5142 30.6391 16.4262 30.8172 17.4467C31.7886 17.148 32.8387 17.2457 33.7384 17.7185L34.0843 17.919L33.9028 18.274C33.5348 18.8948 32.9905 19.3922 32.3391 19.7029C31.6877 20.0136 30.9586 20.1236 30.2446 20.0189C28.0655 25.4471 23.3252 28.0174 17.567 28.0174C16.1331 28.1027 14.7027 27.7994 13.4268 27.1394C12.1508 26.4795 11.0767 25.4874 10.3177 24.2678L10.2926 24.2247L10.066 23.7644C9.55339 22.6015 9.35325 21.325 9.48535 20.061L9.52045 19.68H11.6695V17.1078H14.1865V14.5907H19.2207V12.0736H22.2411L22.2421 17.1078Z"
    fill="#3A4E55" />
  <path
    d="M30.3981 18.0604C30.4153 17.5078 30.2943 16.9596 30.046 16.4656C29.7977 15.9715 29.4299 15.5474 28.9761 15.2315C28.5831 15.8085 28.3977 16.5019 28.4503 17.1981C28.503 17.8943 28.7906 18.5519 29.2659 19.0633C28.3314 19.7558 27.1948 20.1212 26.0318 20.1032H9.89959C9.76111 21.3905 9.99317 22.6907 10.5685 23.8507L10.752 24.1866C10.8681 24.3837 10.995 24.5742 11.132 24.7572C11.7952 24.8 12.4066 24.8151 12.9662 24.8023C13.8729 24.8079 14.7753 24.6764 15.6427 24.4123C15.6912 24.3955 15.7444 24.3987 15.7906 24.4212C15.8368 24.4437 15.8721 24.4836 15.8889 24.5321C15.9056 24.5806 15.9024 24.6338 15.88 24.68C15.8575 24.7262 15.8176 24.7615 15.7691 24.7783C15.6788 24.8094 15.5845 24.8395 15.4873 24.8665C14.8836 25.0353 14.2631 25.1362 13.6371 25.1674C13.6812 25.1674 13.5909 25.1744 13.5909 25.1744L13.5087 25.1814C12.8378 25.2108 12.1658 25.2088 11.4951 25.1754L11.485 25.1824C12.2672 25.996 13.2145 26.6326 14.2633 27.0494C15.312 27.4663 16.4379 27.6538 17.5651 27.5992C23.1407 27.5992 27.87 25.1273 29.9649 19.5767C31.451 19.7291 32.879 19.3501 33.5279 18.0825C33.0433 17.8368 32.5083 17.7069 31.9651 17.703C31.4218 17.6992 30.886 17.8216 30.3981 18.0604Z"
    fill="#00AADA" />
  <path
    d="M30.3981 18.0604C30.4154 17.5078 30.2944 16.9596 30.046 16.4656C29.7977 15.9715 29.4299 15.5474 28.9761 15.2315C28.5831 15.8085 28.3977 16.5019 28.4504 17.1981C28.503 17.8943 28.7906 18.5519 29.2659 19.0633C28.3314 19.7558 27.1949 20.1212 26.0319 20.1032H10.8553C10.7726 21.002 10.9235 21.907 11.2936 22.7304C11.6636 23.5537 12.2401 24.2675 12.9672 24.8023C13.874 24.8079 14.7763 24.6764 15.6437 24.4123C15.6678 24.404 15.6932 24.4005 15.7186 24.402C15.744 24.4035 15.7688 24.4101 15.7916 24.4212C15.8145 24.4323 15.835 24.4478 15.8518 24.4669C15.8687 24.4859 15.8816 24.5081 15.8899 24.5321C15.8982 24.5561 15.9017 24.5816 15.9002 24.6069C15.8986 24.6323 15.8921 24.6571 15.881 24.68C15.8699 24.7029 15.8543 24.7233 15.8353 24.7402C15.8163 24.757 15.7941 24.77 15.7701 24.7783C15.6798 24.8094 15.5856 24.8395 15.4883 24.8665C14.8685 25.0402 14.2316 25.1458 13.589 25.1814L13.5699 25.1594C15.4672 26.1331 18.219 26.1291 21.3738 24.9177C24.9736 23.4633 28.1227 21.0793 30.4994 18.0093L30.3991 18.0574"
    fill="#27B9EC" />
  <path
    d="M9.92969 21.7819C10.0247 22.5019 10.2407 23.2006 10.5685 23.8487L10.752 24.1846C10.8681 24.3816 10.995 24.5721 11.1321 24.7552C11.7953 24.798 12.4066 24.813 12.9662 24.8003C13.8729 24.8059 14.7753 24.6744 15.6427 24.4102C15.6667 24.4019 15.6922 24.3985 15.7176 24.4C15.7429 24.4015 15.7678 24.408 15.7906 24.4192C15.8135 24.4303 15.8339 24.4458 15.8508 24.4648C15.8677 24.4839 15.8806 24.506 15.8889 24.5301C15.8972 24.5541 15.9007 24.5795 15.8991 24.6049C15.8976 24.6303 15.8911 24.6551 15.88 24.678C15.8688 24.7008 15.8533 24.7213 15.8343 24.7382C15.8153 24.755 15.7931 24.768 15.7691 24.7763C15.6788 24.8074 15.5845 24.8374 15.4873 24.8645C14.8682 25.0356 14.2324 25.1389 13.591 25.1724H13.4907C13.1989 25.1884 12.889 25.1984 12.5661 25.1984C12.2141 25.1984 11.8551 25.1914 11.463 25.1724C12.2476 25.9865 13.1971 26.6236 14.248 27.0409C15.2988 27.4583 16.4267 27.6462 17.5561 27.5922C22.3295 27.5922 26.4811 25.7801 28.8879 21.7758L9.92969 21.7819Z"
    fill="#088CB9" />
  <path
    d="M10.9995 21.7819C11.2427 23.0034 11.947 24.0843 12.966 24.8004C13.8728 24.8059 14.7751 24.6744 15.6425 24.4103C15.6911 24.3935 15.7443 24.3967 15.7904 24.4192C15.8366 24.4417 15.872 24.4816 15.8887 24.5301C15.9055 24.5786 15.9023 24.6318 15.8798 24.678C15.8573 24.7242 15.8174 24.7595 15.7689 24.7763C15.6786 24.8074 15.5844 24.8375 15.4871 24.8645C14.8649 25.0353 14.2261 25.1385 13.5818 25.1724C15.4791 26.1461 18.2228 26.1321 21.3766 24.9197C23.3229 24.1532 25.1411 23.0948 26.7687 21.7809L10.9995 21.7819Z"
    fill="#039CC7" />
  <path
    d="M13.9168 17.7095H14.0893V19.5276H13.9168V17.7095ZM13.5858 17.7095H13.7654V19.5276H13.5858V17.7095ZM13.2549 17.7095H13.4344V19.5276H13.2559L13.2549 17.7095ZM12.924 17.7095H13.1035V19.5276H12.925L12.924 17.7095ZM12.5931 17.7095H12.7726V19.5276H12.5941L12.5931 17.7095ZM12.2692 17.7095H12.4416V19.5276H12.2712V17.7095H12.2692ZM12.0876 17.5279H14.2688V19.7101H12.0886V17.5279H12.0876ZM16.4348 15.1924H16.6073V17.0105H16.4348V15.1924ZM16.1039 15.1924H16.2834V17.0105H16.1039V15.1924ZM15.773 15.1924H15.9525V17.0105H15.773V15.1924ZM15.4421 15.1924H15.6216V17.0105H15.4421V15.1924ZM15.1111 15.1924H15.2896V17.0105H15.1111V15.1924ZM14.7872 15.1924H14.9597V17.0105H14.7872V15.1924ZM14.6057 15.0109H16.7878V17.193H14.6067V15.0099L14.6057 15.0109Z"
    fill="#00ACD3" />
  <path
    d="M16.4348 17.7094H16.6073V19.5275H16.4348V17.7094ZM16.1039 17.7094H16.2834V19.5275H16.1039V17.7094ZM15.773 17.7094H15.9525V19.5275H15.773V17.7094ZM15.4421 17.7094H15.6216V19.5275H15.4421V17.7094ZM15.1111 17.7094H15.2896V19.5275H15.1111V17.7094ZM14.7872 17.7094H14.9597V19.5275H14.7872V17.7094ZM14.6057 17.5279H16.7878V19.71H14.6067L14.6057 17.5279Z"
    fill="#26C2EE" />
  <path
    d="M18.951 17.7094H19.1234V19.5275H18.951V17.7094ZM18.62 17.7094H18.7995V19.5275H18.621L18.62 17.7094ZM18.2891 17.7094H18.4686V19.5275H18.2901V17.7094H18.2891ZM17.9582 17.7094H18.1397V19.5275H17.9602V17.7094H17.9582ZM17.6272 17.7094H17.8067V19.5275H17.6272V17.7094ZM17.3033 17.7094H17.4758V19.5275H17.3033V17.7094ZM17.1218 17.5279H19.3039V19.71H17.1238V17.5279H17.1218Z"
    fill="#00ACD3" />
  <path
    d="M18.951 15.1924H19.1234V17.0105H18.951V15.1924ZM18.62 15.1924H18.7995V17.0105H18.621L18.62 15.1924ZM18.2891 15.1924H18.4686V17.0105H18.2901V15.1924H18.2891ZM17.9582 15.1924H18.1397V17.0105H17.9602V15.1924H17.9582ZM17.6272 15.1924H17.8067V17.0105H17.6272V15.1924ZM17.3033 15.1924H17.4758V17.0105H17.3033V15.1924ZM17.1218 15.0109H19.3039V17.193H17.1238V15.0099L17.1218 15.0109ZM21.469 17.7095H21.6415V19.5276H21.469V17.7095ZM21.1381 17.7095H21.3176V19.5276H21.1381V17.7095ZM20.8072 17.7095H20.9867V19.5276H20.8072V17.7095ZM20.4762 17.7095H20.6557V19.5276H20.4762V17.7095ZM20.1453 17.7095H20.3248V19.5276H20.1453V17.7095ZM19.8214 17.7095H19.9939V19.5276H19.8214V17.7095ZM19.6439 17.5279H21.826V19.7101H19.6439V17.5279Z"
    fill="#26C2EE" />
  <path
    d="M21.469 15.1924H21.6415V17.0105H21.469V15.1924ZM21.1381 15.1924H21.3176V17.0105H21.1381V15.1924ZM20.8072 15.1924H20.9867V17.0105H20.8072V15.1924ZM20.4762 15.1924H20.6557V17.0105H20.4762V15.1924ZM20.1453 15.1924H20.3248V17.0105H20.1453V15.1924ZM19.8214 15.1924H19.9939V17.0105H19.8214V15.1924ZM19.6399 15.0109H21.822V17.193H19.6439V15.0099L19.6399 15.0109Z"
    fill="#00ACD3" />
  <path
    d="M21.4689 12.6743H21.6414V14.4924H21.4689V12.6743ZM21.138 12.6743H21.3175V14.4924H21.138V12.6743ZM20.8071 12.6743H20.9866V14.4924H20.8071V12.6743ZM20.4761 12.6743H20.6556V14.4924H20.4761V12.6743ZM20.1452 12.6743H20.3247V14.4924H20.1452V12.6743ZM19.8213 12.6743H19.9938V14.4924H19.8213V12.6743ZM19.6438 12.4928H21.8259V14.6749H19.6438V12.4928Z"
    fill="#26C2EE" />
  <path
    d="M23.9861 17.7094H24.1566V19.5275H23.9861V17.7094ZM23.6552 17.7094H23.8337V19.5275H23.6552V17.7094ZM23.3243 17.7094H23.5038V19.5275H23.3243V17.7094ZM22.9933 17.7094H23.1728V19.5275H22.9933V17.7094ZM22.6624 17.7094H22.8419V19.5275H22.6624V17.7094ZM22.3385 17.7094H22.511V19.5275H22.3385V17.7094ZM22.157 17.5279H24.3391V19.71H22.158L22.157 17.5279Z"
    fill="#00ACD3" />
  <path
    d="M16.6515 23.247C16.7705 23.247 16.8868 23.2823 16.9858 23.3484C17.0847 23.4145 17.1618 23.5085 17.2074 23.6184C17.2529 23.7284 17.2648 23.8493 17.2416 23.966C17.2184 24.0828 17.1611 24.19 17.0769 24.2741C16.9928 24.3583 16.8856 24.4156 16.7689 24.4388C16.6522 24.462 16.5312 24.4501 16.4212 24.4046C16.3113 24.359 16.2173 24.2819 16.1512 24.1829C16.0851 24.084 16.0498 23.9677 16.0498 23.8487C16.0498 23.6891 16.1132 23.536 16.226 23.4232C16.3389 23.3104 16.4919 23.247 16.6515 23.247Z"
    fill="#D5EEF2" />
  <path
    d="M16.6515 23.4175C16.705 23.4174 16.758 23.4272 16.8079 23.4465C16.7846 23.4601 16.7646 23.4789 16.7497 23.5014C16.7348 23.524 16.7252 23.5497 16.7219 23.5765C16.7185 23.6034 16.7214 23.6306 16.7303 23.6561C16.7392 23.6817 16.7539 23.7048 16.7732 23.7237C16.7926 23.7426 16.816 23.7568 16.8417 23.7652C16.8674 23.7736 16.8947 23.7759 16.9215 23.772C16.9482 23.768 16.9737 23.758 16.9959 23.7426C17.0182 23.7272 17.0365 23.7069 17.0496 23.6832C17.0851 23.7685 17.0922 23.863 17.0699 23.9527C17.0476 24.0423 16.9971 24.1225 16.9258 24.1813C16.8545 24.2401 16.7662 24.2744 16.674 24.2793C16.5817 24.2841 16.4903 24.2592 16.4133 24.2081C16.3362 24.1571 16.2776 24.0827 16.2461 23.9958C16.2146 23.909 16.2118 23.8143 16.2381 23.7257C16.2645 23.6371 16.3186 23.5594 16.3924 23.5039C16.4663 23.4484 16.5561 23.4181 16.6485 23.4175M6.00564 21.9995H34.0042C33.3945 21.845 32.0758 21.6365 32.2924 20.8372C31.1843 22.1198 28.5108 21.7397 27.8359 21.105C27.0848 22.195 22.7105 21.7809 22.4056 20.9315C21.464 22.0346 18.5448 22.0346 17.6032 20.9315C17.3023 21.7809 12.924 22.195 12.1729 21.105C11.498 21.7377 8.82555 22.1198 7.71644 20.8372C7.93405 21.6395 6.61335 21.845 6.00464 21.9995"
    fill="#3A4E55" />
  <path
    d="M18.251 27.5841C17.0196 27.0593 16.0323 26.0881 15.4873 24.8655C14.836 25.0382 14.1679 25.1391 13.4947 25.1664C13.2032 25.1824 12.8967 25.1908 12.5751 25.1914C12.2047 25.1914 11.8143 25.1804 11.4038 25.1583C12.1958 25.9831 13.1561 26.6276 14.2195 27.0481C15.2828 27.4686 16.4242 27.6552 17.5661 27.5952C17.7961 27.5952 18.0244 27.5908 18.251 27.5821"
    fill="#C0DBE1" />
  <path
    d="M16.0408 25.8342C15.8222 25.532 15.6366 25.2073 15.4872 24.8655C14.836 25.0382 14.1678 25.1391 13.4946 25.1664C14.2875 25.5639 15.1548 25.7907 16.0408 25.8322"
    fill="#D5EEF2" />
</svg>