<svg width="40" height="40" viewBox="0 0 41 41" fill="none" xmlns="http://www.w3.org/2000/svg">
<circle cx="20" cy="20.5" r="20" fill="#2D2E32"/>
<g clip-path="url(#clip0)">
<path d="M32.09 27.1577C31.7394 27.2903 31.3524 27.29 31.002 27.1569C30.6516 27.0237 30.362 26.767 30.1879 26.435L26.725 21.6461L26.2231 20.9766L22.2051 26.441C22.0415 26.7591 21.7676 27.0066 21.4347 27.1374C21.1018 27.2682 20.7327 27.2733 20.3963 27.1517L25.5737 20.2057L20.7577 13.9313C21.104 13.8065 21.4827 13.8048 21.83 13.9266C22.1774 14.0484 22.4722 14.2861 22.6648 14.5998L26.2542 19.4479L29.8637 14.6199C30.0286 14.3075 30.3025 14.0666 30.6334 13.943C30.9643 13.8193 31.3291 13.8216 31.6584 13.9494L29.7894 16.4296L27.258 19.7249C27.1877 19.7876 27.1314 19.8645 27.0929 19.9505C27.0544 20.0364 27.0345 20.1296 27.0345 20.2238C27.0345 20.318 27.0544 20.4111 27.0929 20.4971C27.1314 20.5831 27.1877 20.66 27.258 20.7227L32.08 27.1587L32.09 27.1577ZM8.00202 20.1194L8.42359 18.0366C9.58192 13.9182 14.3036 12.2048 17.5517 14.7544C19.4538 16.2489 19.9286 18.3649 19.8352 20.7498H9.1202C8.94655 25.0087 12.02 27.5803 15.9497 26.2664C16.5868 26.0371 17.157 25.6533 17.6093 25.1495C18.0616 24.6457 18.3818 24.0376 18.5414 23.3796C18.7492 22.7111 19.0914 22.5967 19.7198 22.7894C19.6151 23.6048 19.3268 24.3859 18.8767 25.0738C18.4266 25.7618 17.8263 26.3387 17.1211 26.7612C15.9562 27.3984 14.6196 27.651 13.3024 27.4828C11.9853 27.3146 10.7551 26.7342 9.78769 25.8247C8.83115 24.7481 8.25303 23.3881 8.14154 21.9523C8.14154 21.7164 8.06124 21.4955 8.00704 21.2838C8.00215 20.896 7.99981 20.5082 8.00001 20.1204L8.00202 20.1194ZM9.13325 19.8323H18.8234C18.7632 16.7448 16.8149 14.5546 14.2162 14.5345C11.3234 14.4944 9.2537 16.6364 9.12622 19.8183L9.13325 19.8323Z" fill="black"/>
</g>
<defs>
<clipPath id="clip0">
<rect width="24.09" height="24.09" fill="white" transform="translate(8 8.5)"/>
</clipPath>
</defs>
</svg>
