<svg width="40" height="40" viewBox="0 0 41 41" fill="none" xmlns="http://www.w3.org/2000/svg">
  <circle cx="20" cy="20.5" r="20" fill="#2D2E32"/>
  <path d="M12.3663 29.0192L12.4943 28.8408L18.5319 17.3875L18.5447 17.2663L15.8835 12.2676C15.8348 12.1762 15.7585 12.1024 15.6656 12.0567C15.5726 12.011 15.4676 11.9957 15.3655 12.0129C15.2634 12.0302 15.1692 12.0791 15.0964 12.1527C15.0236 12.2264 14.9758 12.3211 14.9598 12.4234L12.3663 29.0192Z" fill="#FFC24A"/>
  <path d="M12.4416 28.8837L12.5379 28.6955L18.513 17.3611L15.8586 12.3429C15.8148 12.2556 15.744 12.1849 15.6566 12.1413C15.5693 12.0977 15.4701 12.0835 15.3741 12.101C15.278 12.1185 15.1902 12.1666 15.1238 12.2382C15.0574 12.3097 15.0159 12.4009 15.0057 12.498L12.4416 28.8837Z" fill="#FFA712"/>
  <path d="M20.4847 21.0469L22.4661 19.0143L20.4839 15.2345C20.4403 15.1531 20.3754 15.0851 20.2962 15.0377C20.217 14.9903 20.1264 14.9653 20.0341 14.9653C19.9418 14.9653 19.8512 14.9903 19.772 15.0377C19.6928 15.0851 19.6279 15.1531 19.5843 15.2345L18.5251 17.2535V17.4259L20.4847 21.0469Z" fill="#F4BD62"/>
  <path d="M20.4493 20.9641L22.3757 18.9917L20.4493 15.318C20.4178 15.2385 20.3639 15.1698 20.2942 15.1202C20.2245 15.0706 20.142 15.0422 20.0565 15.0384C19.971 15.0347 19.8863 15.0558 19.8125 15.0991C19.7388 15.1424 19.6791 15.2062 19.6408 15.2826L18.5763 17.337L18.5447 17.4417L20.4493 20.9641Z" fill="#FFA50E"/>
  <path d="M12.3678 29.0199L12.4258 28.9612L12.6358 28.8762L20.3597 21.1809L20.4575 20.9144L18.5311 17.2422L12.3678 29.0199Z" fill="#F6820C"/>
  <path d="M20.7316 32.9007L27.7237 29.0019L25.7257 16.7077C25.7114 16.621 25.6735 16.54 25.6161 16.4734C25.5588 16.4069 25.4842 16.3575 25.4006 16.3306C25.3169 16.3037 25.2275 16.3003 25.1421 16.3209C25.0567 16.3415 24.9787 16.3852 24.9165 16.4472L12.3663 29.0192L19.3171 32.8999C19.5331 33.0205 19.7765 33.0838 20.0239 33.0838C20.2714 33.0838 20.5147 33.0205 20.7308 32.8999" fill="#FDE068"/>
  <path d="M27.6597 28.9695L25.6783 16.7679C25.6748 16.685 25.6468 16.605 25.5978 16.538C25.5488 16.4711 25.4811 16.4201 25.4031 16.3917C25.3252 16.3632 25.2406 16.3586 25.16 16.3782C25.0794 16.3979 25.0064 16.441 24.9503 16.5022L12.4416 28.9958L19.3155 32.8352C19.5299 32.9548 19.7713 33.0176 20.0168 33.0176C20.2622 33.0176 20.5036 32.9548 20.718 32.8352L27.6597 28.9695Z" fill="#FCCA3F"/>
  <path d="M20.7316 32.7833C20.5155 32.9038 20.2722 32.9671 20.0247 32.9671C19.7772 32.9671 19.5339 32.9038 19.3178 32.7833L12.4235 28.9605L12.3663 29.0192L19.3171 32.8999C19.5331 33.0205 19.7765 33.0838 20.0239 33.0838C20.2714 33.0838 20.5147 33.0205 20.7308 32.8999L27.7237 29.0019L27.7064 28.8965L20.7316 32.7833Z" fill="#EEAB37"/>
</svg>
