<svg width="40" height="40" viewBox="0 0 41 41" fill="none" xmlns="http://www.w3.org/2000/svg">
<circle cx="20" cy="20.5" r="20" fill="#2D2E32"/>
<path d="M28.3259 21.045H23.0562V22.5506H26.6697C26.4113 23.6673 25.8759 24.7009 25.1128 25.5561C24.3497 26.4113 23.3835 27.0605 22.3034 27.4439L13.6461 18.7866C14.1137 17.4638 14.9805 16.3189 16.1267 15.5098C17.2729 14.7007 18.642 14.2674 20.045 14.2697C21.1326 14.2774 22.2033 14.5402 23.1708 15.037C24.1384 15.5339 24.9758 16.2509 25.6158 17.1304L26.745 16.1517C25.8057 14.8684 24.5165 13.883 23.0316 13.3132C21.5468 12.7435 19.9293 12.6137 18.3726 12.9394C16.816 13.265 15.3861 14.0323 14.2541 15.1494C13.1222 16.2664 12.3361 17.686 11.9899 19.2383L21.927 29.1754C23.7421 28.7178 25.3545 27.6718 26.5122 26.2008C27.6699 24.7299 28.3077 22.9168 28.3259 21.045V21.045ZM11.764 21.1203C11.7664 22.186 11.9806 23.2406 12.3942 24.2228C12.8077 25.205 13.4124 26.0952 14.173 26.8417C15.689 28.366 17.7447 29.2315 19.8944 29.2507L11.764 21.1203Z" fill="white"/>
<path d="M20.045 10.5056C17.9605 10.5056 15.9228 11.1237 14.1896 12.2818C12.4564 13.4399 11.1056 15.0859 10.3079 17.0117C9.51018 18.9376 9.30147 21.0567 9.70813 23.1011C10.1148 25.1456 11.1186 27.0235 12.5925 28.4975C14.0665 29.9714 15.9444 30.9752 17.9889 31.3819C20.0333 31.7885 22.1524 31.5798 24.0782 30.7821C26.0041 29.9844 27.6501 28.6335 28.8082 26.9004C29.9662 25.1672 30.5844 23.1295 30.5844 21.045C30.5762 18.2523 29.4632 15.5763 27.4885 13.6015C25.5137 11.6268 22.8377 10.5138 20.045 10.5056V10.5056ZM14.1731 26.9169C12.6487 25.4009 11.7832 23.3453 11.7641 21.1956L19.9697 29.3259C17.8018 29.2874 15.7297 28.4263 14.1731 26.9169V26.9169ZM21.8517 29.1001L11.9899 19.2382C12.3361 17.686 13.1222 16.2664 14.2542 15.1493C15.3861 14.0322 16.816 13.265 18.3727 12.9393C19.9293 12.6137 21.5468 12.7435 23.0317 13.3132C24.5165 13.8829 25.8057 14.8684 26.745 16.1517L25.6158 17.1304C24.9759 16.2509 24.1384 15.5339 23.1709 15.037C22.2033 14.5402 21.1326 14.2773 20.045 14.2697C18.6446 14.2783 17.2805 14.7158 16.1364 15.5234C14.9922 16.331 14.1231 17.4699 13.6461 18.7866L22.3034 27.4439C23.3836 27.0605 24.3497 26.4113 25.1128 25.5561C25.8759 24.7009 26.4114 23.6673 26.6697 22.5506H23.0562V21.045H28.3259C28.3158 22.9217 27.6702 24.7395 26.4945 26.2023C25.3188 27.6651 23.6823 28.6865 21.8517 29.1001V29.1001Z" fill="#663399"/>
</svg>
