<svg width="40" height="40" viewBox="0 0 41 41" fill="none" xmlns="http://www.w3.org/2000/svg">
<circle cx="20" cy="20.5" r="20" fill="#2D2E32"/>
<path d="M30.1869 19.6062L20.9837 10.4031C20.8578 10.2768 20.7083 10.1765 20.5435 10.1081C20.3788 10.0398 20.2022 10.0045 20.0239 10.0045C19.8455 10.0045 19.669 10.0398 19.5042 10.1081C19.3395 10.1765 19.1899 10.2768 19.0641 10.4031L17.1527 12.3145L19.5767 14.7385C19.8626 14.6413 20.17 14.6262 20.464 14.6952C20.7579 14.7641 21.0266 14.9143 21.2394 15.1285C21.4522 15.3427 21.6006 15.6124 21.6676 15.9068C21.7346 16.2012 21.7175 16.5085 21.6183 16.7937L23.9521 19.1274C24.3009 19.0076 24.6803 19.0109 25.027 19.1368C25.3736 19.2628 25.6667 19.5037 25.8573 19.8194C26.048 20.1352 26.1246 20.5068 26.0746 20.8722C26.0245 21.2376 25.8507 21.5749 25.5822 21.8277C25.3137 22.0806 24.9666 22.2338 24.5988 22.2618C24.231 22.2898 23.8647 22.191 23.561 21.9817C23.2573 21.7725 23.0344 21.4655 22.9295 21.1119C22.8247 20.7582 22.8441 20.3794 22.9847 20.0383L20.8053 17.859V23.5931C21.1355 23.7567 21.3996 24.0284 21.5537 24.3631C21.7078 24.6978 21.7427 25.0751 21.6524 25.4323C21.5621 25.7895 21.3521 26.105 21.0575 26.3262C20.7629 26.5475 20.4014 26.6611 20.0331 26.6481C19.6649 26.6352 19.3123 26.4965 19.0339 26.2551C18.7555 26.0138 18.5682 25.6843 18.5032 25.3216C18.4383 24.959 18.4995 24.585 18.6767 24.262C18.854 23.939 19.1365 23.6864 19.4774 23.5465V17.7596C19.2802 17.6787 19.101 17.5596 18.95 17.4091C18.7991 17.2587 18.6794 17.0798 18.5979 16.8829C18.5164 16.686 18.4746 16.4749 18.475 16.2618C18.4755 16.0487 18.518 15.8378 18.6003 15.6412L16.2139 13.2532L9.90308 19.5663C9.77664 19.6922 9.67631 19.8419 9.60785 20.0067C9.53939 20.1714 9.50415 20.3481 9.50415 20.5265C9.50415 20.705 9.53939 20.8817 9.60785 21.0464C9.67631 21.2112 9.77664 21.3609 9.90308 21.4868L19.1062 30.6869C19.2321 30.8132 19.3817 30.9134 19.5464 30.9818C19.7111 31.0502 19.8877 31.0854 20.0661 31.0854C20.2444 31.0854 20.421 31.0502 20.5857 30.9818C20.7504 30.9134 20.9 30.8132 21.0259 30.6869L30.1869 21.5236C30.3133 21.3977 30.4136 21.2481 30.4821 21.0833C30.5506 20.9185 30.5858 20.7419 30.5858 20.5634C30.5858 20.385 30.5506 20.2083 30.4821 20.0435C30.4136 19.8788 30.3133 19.7291 30.1869 19.6032" fill="#DD4C35"/>
<path d="M17.1527 12.3145L19.5767 14.7385C19.8626 14.6413 20.17 14.6262 20.464 14.6952C20.758 14.7641 21.0267 14.9142 21.2395 15.1285C21.4523 15.3427 21.6006 15.6124 21.6676 15.9068C21.7346 16.2012 21.7175 16.5085 21.6184 16.7937L23.9521 19.1274C24.3009 19.0076 24.6803 19.0109 25.027 19.1368C25.3737 19.2627 25.6667 19.5037 25.8574 19.8194C26.048 20.1352 26.1247 20.5067 26.0746 20.8722C26.0245 21.2376 25.8507 21.5749 25.5822 21.8277C25.3137 22.0806 24.9666 22.2338 24.5988 22.2618C24.231 22.2898 23.8648 22.191 23.561 21.9817C23.2573 21.7725 23.0344 21.4655 22.9295 21.1119C22.8247 20.7582 22.8442 20.3793 22.9847 20.0383L20.8053 17.8589V23.5931C21.1355 23.7567 21.3996 24.0284 21.5537 24.3631C21.7079 24.6977 21.7427 25.0751 21.6524 25.4323C21.5621 25.7895 21.3522 26.105 21.0575 26.3262C20.7629 26.5475 20.4014 26.6611 20.0332 26.6481C19.6649 26.6352 19.3123 26.4965 19.0339 26.2551C18.7555 26.0137 18.5683 25.6843 18.5033 25.3216C18.4383 24.959 18.4995 24.585 18.6768 24.262C18.854 23.939 19.1366 23.6864 19.4774 23.5464V17.7596C19.2802 17.6787 19.101 17.5596 18.9501 17.4091C18.7991 17.2587 18.6794 17.0798 18.5979 16.8829C18.5164 16.686 18.4746 16.4749 18.4751 16.2618C18.4755 16.0487 18.5181 15.8378 18.6003 15.6412L16.2139 13.2532" fill="white"/>
</svg>
