<svg width="40" height="41" viewBox="0 0 40 41" fill="none" xmlns="http://www.w3.org/2000/svg">
  <circle cx="20" cy="20.5" r="20" fill="#2D2E32"/>
  <path d="M11.6005 25.6266L20.2214 10.694L20.9954 11.1405L12.3745 26.0731L11.6005 25.6266Z" fill="#E10098"/>
  <path d="M11.422 24.4332H28.6653V25.3269H11.422V24.4332Z" fill="#E10098"/>
  <path d="M11.7631 24.9354L12.2103 24.1614L20.835 29.1404L20.3877 29.9144L11.7631 24.9354Z" fill="#E10098"/>
  <path d="M19.2561 11.9566L19.7033 11.1826L28.328 16.1624L27.8808 16.9364L19.2561 11.9566Z" fill="#E10098"/>
  <path d="M11.7653 16.1602L20.39 11.1804L20.8372 11.9544L12.2126 16.9342L11.7653 16.1602Z" fill="#E10098"/>
  <path d="M19.1003 11.1412L19.8743 10.694L28.4952 25.6266L27.7219 26.0731L19.1003 11.1412Z" fill="#E10098"/>
  <path d="M12.1064 15.5669H13.0001V25.5264H12.1064V15.5669Z" fill="#E10098"/>
  <path d="M27.094 15.5669H27.9877V25.5264H27.094V15.5669Z" fill="#E10098"/>
  <path d="M19.8456 28.8604L27.347 24.5296L27.7377 25.2057L20.2364 29.5365L19.8456 28.8604Z" fill="#E10098"/>
  <path d="M29.172 25.8171C28.9863 26.1399 28.7089 26.4003 28.375 26.5654C28.0412 26.7306 27.6658 26.7929 27.2965 26.7446C26.9272 26.6963 26.5805 26.5395 26.3003 26.2941C26.0202 26.0487 25.8191 25.7256 25.7226 25.3659C25.6261 25.0061 25.6385 24.6259 25.7582 24.2732C25.8779 23.9205 26.0996 23.6112 26.3952 23.3846C26.6907 23.1579 27.0469 23.024 27.4186 22.9999C27.7902 22.9757 28.1607 23.0624 28.4831 23.2489C28.9146 23.4985 29.2295 23.9091 29.3586 24.3905C29.4878 24.872 29.4207 25.385 29.172 25.8171Z" fill="#E10098"/>
  <path d="M14.1739 17.1585C13.9882 17.4814 13.7108 17.7418 13.3769 17.9069C13.043 18.072 12.6677 18.1344 12.2984 18.0861C11.9291 18.0378 11.5824 17.881 11.3022 17.6355C11.0221 17.3901 10.821 17.0671 10.7245 16.7073C10.628 16.3476 10.6404 15.9673 10.7601 15.6146C10.8798 15.2619 11.1015 14.9527 11.3971 14.726C11.6926 14.4994 12.0488 14.3655 12.4204 14.3413C12.7921 14.3172 13.1626 14.4038 13.485 14.5903C13.9165 14.8399 14.2314 15.2505 14.3605 15.732C14.4897 16.2134 14.4226 16.7265 14.1739 17.1585Z" fill="#E10098"/>
  <path d="M10.9213 25.8171C10.7348 25.4947 10.6481 25.1242 10.6723 24.7525C10.6965 24.3808 10.8303 24.0247 11.057 23.7291C11.2836 23.4336 11.5929 23.2119 11.9456 23.0922C12.2983 22.9724 12.6786 22.9601 13.0383 23.0566C13.3981 23.1531 13.7211 23.3541 13.9665 23.6343C14.2119 23.9144 14.3687 24.2611 14.417 24.6304C14.4653 24.9998 14.403 25.3751 14.2379 25.709C14.0728 26.0428 13.8123 26.3202 13.4895 26.506C13.0574 26.7546 12.5444 26.8217 12.0629 26.6926C11.5815 26.5634 11.1709 26.2486 10.9213 25.8171Z" fill="#E10098"/>
  <path d="M25.9194 17.1585C25.7329 16.8361 25.6463 16.4656 25.6704 16.094C25.6946 15.7223 25.8284 15.3661 26.0551 15.0706C26.2818 14.775 26.591 14.5534 26.9437 14.4336C27.2964 14.3139 27.6767 14.3015 28.0364 14.398C28.3962 14.4945 28.7192 14.6956 28.9646 14.9757C29.21 15.2559 29.3668 15.6026 29.4151 15.9719C29.4634 16.3412 29.4011 16.7166 29.236 17.0504C29.0709 17.3843 28.8104 17.6617 28.4876 17.8475C28.0556 18.0961 27.5425 18.1632 27.0611 18.034C26.5796 17.9049 26.169 17.59 25.9194 17.1585Z" fill="#E10098"/>
  <path d="M20.0467 31.0875C19.6744 31.0875 19.3105 30.9771 19.0009 30.7703C18.6914 30.5634 18.4501 30.2695 18.3076 29.9255C18.1652 29.5816 18.1279 29.2031 18.2005 28.838C18.2732 28.4729 18.4524 28.1375 18.7157 27.8742C18.9789 27.611 19.3143 27.4317 19.6794 27.3591C20.0446 27.2864 20.423 27.3237 20.767 27.4662C21.1109 27.6087 21.4049 27.8499 21.6117 28.1595C21.8186 28.469 21.929 28.8329 21.929 29.2052C21.9296 29.4526 21.8814 29.6977 21.7871 29.9263C21.6927 30.155 21.5541 30.3628 21.3792 30.5377C21.2043 30.7127 20.9965 30.8513 20.7678 30.9456C20.5391 31.04 20.294 31.0882 20.0467 31.0875Z" fill="#E10098"/>
  <path d="M20.0467 13.7636C19.6744 13.7636 19.3105 13.6532 19.0009 13.4464C18.6914 13.2396 18.4501 12.9456 18.3076 12.6017C18.1652 12.2577 18.1279 11.8793 18.2005 11.5141C18.2732 11.149 18.4524 10.8136 18.7157 10.5504C18.9789 10.2871 19.3143 10.1079 19.6794 10.0352C20.0446 9.96259 20.423 9.99987 20.767 10.1423C21.1109 10.2848 21.4049 10.5261 21.6117 10.8356C21.8186 11.1451 21.929 11.5091 21.929 11.8813C21.9296 12.1287 21.8814 12.3738 21.7871 12.6025C21.6927 12.8312 21.5541 13.039 21.3792 13.2139C21.2043 13.3888 20.9965 13.5274 20.7678 13.6218C20.5391 13.7161 20.294 13.7643 20.0467 13.7636Z" fill="#E10098"/>
</svg>
