<svg width="40" height="40" viewBox="0 0 41 41" fill="none" xmlns="http://www.w3.org/2000/svg">
<circle cx="20.5" cy="20.5" r="20" fill="#2D2E32"/>
<g clip-path="url(#clip0)">
<path d="M29.4767 9C30.6597 9 31.6211 9.9494 31.6403 11.1281L31.6406 11.1639V30.8791C31.6406 32.0622 30.6909 33.0236 29.5124 33.0428L29.4767 33.043H12.1657C10.9827 33.043 10.0213 32.0934 10.0021 30.915L10.0018 30.8791V11.1639C10.0018 9.98059 10.9515 9.01944 12.13 9.00025L12.1657 9H29.4767ZM29.4767 10.2021H12.1657C11.6438 10.2021 11.2175 10.6204 11.2043 11.1391L11.204 11.1639V30.8791C11.204 31.401 11.6222 31.8273 12.1409 31.8405L12.1657 31.8409H29.4767C29.9988 31.8409 30.4249 31.4227 30.4381 30.904L30.4384 30.8791V11.1639C30.4384 10.6337 30.0072 10.2021 29.4767 10.2021V10.2021ZM15.4115 24.6281L18.1164 27.0323L15.4115 29.4367V24.628V24.6281ZM17.8158 12.6065V19.432C19.0161 19.0413 20.6941 18.6172 22.3239 18.6172C23.81 18.6172 24.6996 19.2015 25.1841 19.6916C26.2076 20.7271 26.232 22.0432 26.2306 22.2187V22.2236L26.2309 29.4366H23.8266V22.2568C23.8148 21.6956 23.5443 21.0215 22.3239 21.0215C19.9038 21.0215 17.192 22.2266 17.1115 22.2626L17.1098 22.2634L15.4115 23.0327V12.6064H17.8158V12.6065ZM26.2309 12.6065C26.0686 13.9721 25.5149 15.2812 24.4277 16.5135H22.0233C22.9683 15.2737 23.5615 13.9691 23.8266 12.6065H26.2309Z" fill="#430098"/>
</g>
<defs>
<clipPath id="clip0">
<rect width="21.6409" height="24.09" fill="white" transform="translate(10 9)"/>
</clipPath>
</defs>
</svg>
