<svg width="40" height="40" viewBox="0 0 41 41" fill="none" xmlns="http://www.w3.org/2000/svg">
<circle cx="20" cy="20.5" r="20" fill="#2D2E32"/>
<path d="M12.4431 28.9772L10.7515 10.0056H29.3385L27.6446 28.9742L20.0337 31.0844L12.4431 28.9772Z" fill="#E44F26"/>
<path d="M20.045 29.4719L26.1955 27.7667L27.6424 11.5572H20.045V29.4719Z" fill="#F1662A"/>
<path d="M20.045 18.593H16.966L16.7537 16.2103H20.045V13.8834H14.2107L14.2664 14.5082L14.8378 20.9199H20.045V18.593V18.593Z" fill="#EBEBEB"/>
<path d="M20.045 24.6358L20.0345 24.6388L17.4433 23.9394L17.2777 22.0837H14.9417L15.2677 25.7364L20.0345 27.0598L20.045 27.0568V24.6358Z" fill="#EBEBEB"/>
<path d="M20.0367 18.593V20.9199H22.9019L22.6324 23.9379L20.0367 24.638V27.0591L24.8073 25.7364L24.8419 25.3434L25.3885 19.2178L25.4457 18.593H20.0367V18.593Z" fill="white"/>
<path d="M20.0367 13.8834V16.2103H25.6572L25.7039 15.6879L25.8101 14.5082L25.8658 13.8834H20.0367V13.8834Z" fill="white"/>
</svg>
