<svg width="41" height="41" viewBox="0 0 41 41" fill="none" xmlns="http://www.w3.org/2000/svg">
  <circle cx="20.5" cy="20.5" r="20" fill="#2D2E32" />
  <path
    d="M16.9617 26.4665C16.9617 26.4665 16.0645 26.9886 17.601 27.1647C19.4627 27.3774 20.4141 27.3469 22.4651 26.9592C22.4651 26.9592 23.0054 27.297 23.7586 27.5899C19.1591 29.5603 13.3495 27.4756 16.9617 26.4665ZM16.3993 23.8947C16.3993 23.8947 15.3928 24.6398 16.9306 24.799C18.9194 25.0043 20.4895 25.0211 23.208 24.4979C23.208 24.4979 23.583 24.879 24.1738 25.0871C18.6139 26.7132 12.4213 25.2151 16.3993 23.8947Z"
    fill="#0074BD" />
  <path
    d="M21.137 19.5314C22.2709 20.8366 20.8397 22.01 20.8397 22.01C20.8397 22.01 23.7171 20.5249 22.3959 18.6643C21.1615 16.93 20.2152 16.0686 25.3385 13.0973C25.3385 13.0975 17.2964 15.1054 21.137 19.5314Z"
    fill="#EA2D2E" />
  <path
    d="M27.2198 28.369C27.2198 28.369 27.884 28.9167 26.4881 29.34C23.834 30.144 15.4394 30.3864 13.108 29.3722C12.2703 29.0074 13.8418 28.5017 14.3362 28.395C14.8517 28.2834 15.146 28.3037 15.146 28.3037C14.2139 27.6475 9.12108 29.5929 12.5596 30.1509C21.936 31.6709 29.6516 29.4664 27.2198 28.369ZM17.3935 21.2296C17.3935 21.2296 13.124 22.2438 15.8817 22.6125C17.0463 22.7683 19.3669 22.7325 21.5299 22.5511C23.2971 22.4026 25.0705 22.0855 25.0705 22.0855C25.0705 22.0855 24.448 22.3526 23.997 22.6601C19.6605 23.8008 11.285 23.2695 13.6965 22.1034C15.7351 21.1174 17.3935 21.2296 17.3935 21.2296ZM25.0529 25.5106C29.4608 23.2207 27.4225 21.0201 25.9999 21.3165C25.6521 21.389 25.4961 21.452 25.4961 21.452C25.4961 21.452 25.6256 21.2489 25.8725 21.1616C28.6867 20.1726 30.8506 24.0793 24.9648 25.6267C24.9648 25.6264 25.0323 25.5652 25.0529 25.5106Z"
    fill="#0074BD" />
  <path
    d="M22.3958 8.29868C22.3958 8.29868 24.8364 10.7408 20.0803 14.4949C16.2662 17.5073 19.2106 19.2244 20.079 21.1872C17.8524 19.1785 16.2191 17.41 17.3147 15.7641C18.9234 13.3487 23.3803 12.1772 22.3958 8.29868Z"
    fill="#EA2D2E" />
  <path
    d="M17.8268 31.7175C22.0569 31.988 28.5544 31.567 28.7082 29.5652C28.7082 29.5652 28.4125 30.3241 25.2119 30.9261C21.6011 31.6059 17.1467 31.5267 14.5056 31.0906C14.5056 31.0908 15.0467 31.5387 17.8268 31.7175Z"
    fill="#0074BD" />
</svg>