<svg width="41" height="41" viewBox="0 0 41 41" fill="none" xmlns="http://www.w3.org/2000/svg">
  <circle cx="20.5" cy="20.5" r="20" fill="#2D2E32" />
  <g clip-path="url(#clip0_1002_349)">
    <path
      d="M15.7243 32.0487C15.1648 32.0487 14.6364 31.8 14.2789 31.3493L8.83941 24.5886C8.48192 24.1378 8.34208 23.5629 8.48192 23.0032L10.4246 14.564C10.549 14.0045 10.922 13.5538 11.4349 13.3051L19.2991 9.5439C19.5478 9.41968 19.8276 9.35748 20.1073 9.35748C20.3871 9.35748 20.6668 9.41959 20.9155 9.54399L28.7797 13.2896C29.2926 13.5382 29.6656 13.989 29.7899 14.5485L31.7326 22.9877C31.857 23.5472 31.7326 24.1223 31.3752 24.573L25.9355 31.3338C25.578 31.7689 25.0496 32.0331 24.4901 32.0331L15.7245 32.0487H15.7243Z"
      fill="#326DE6" />
    <path
      d="M20.0916 9.74604C20.3093 9.74604 20.5268 9.79262 20.7289 9.88588L28.5931 13.6315C28.9972 13.8335 29.308 14.2066 29.4013 14.6418L31.344 23.081C31.4528 23.5317 31.344 23.998 31.0487 24.3554L25.6091 31.1162C25.3293 31.4736 24.8941 31.6757 24.4434 31.6757H15.7243C15.2736 31.6757 14.8385 31.4736 14.5587 31.1162L9.11908 24.3554C8.83931 23.998 8.73044 23.5317 8.82378 23.081L10.7665 14.6418C10.8753 14.191 11.1706 13.818 11.5747 13.6315L19.439 9.87045C19.641 9.79272 19.8741 9.74614 20.0917 9.74614L20.0916 9.74604ZM20.0916 9.01553C19.7653 9.01553 19.4389 9.09326 19.128 9.2331L11.2638 12.9943C10.6421 13.2896 10.207 13.8335 10.0515 14.5018L8.1088 22.9412C7.95344 23.6095 8.1088 24.2933 8.54402 24.8373L13.9837 31.598C14.4033 32.1264 15.0405 32.4217 15.7088 32.4217H24.4278C25.0961 32.4217 25.7334 32.1264 26.153 31.598L31.5927 24.8372C32.0278 24.3088 32.1833 23.6095 32.0278 22.9411L30.0851 14.5018C29.9297 13.8335 29.4945 13.2896 28.8729 12.9943L21.0397 9.233C20.7444 9.09326 20.418 9.01553 20.0916 9.01553Z"
      fill="white" />
    <path
      d="M27.9714 22.4127C27.9559 22.4127 27.9559 22.4127 27.9714 22.4127H27.9559C27.9403 22.4127 27.9248 22.4127 27.9248 22.3971C27.8938 22.3971 27.8627 22.3816 27.8316 22.3816C27.7228 22.3661 27.6295 22.3506 27.5363 22.3506C27.4896 22.3506 27.443 22.3506 27.3808 22.3349H27.3653C27.0389 22.3039 26.7747 22.2728 26.526 22.1951C26.4172 22.1484 26.3862 22.0863 26.355 22.0241C26.355 22.0086 26.3395 22.0086 26.3395 21.9931L26.1374 21.931C26.2329 21.1998 26.1961 20.4575 26.0287 19.7394C25.859 19.0154 25.5644 18.3264 25.1583 17.7034L25.3138 17.5636V17.5326C25.3138 17.4548 25.3293 17.3771 25.3914 17.2994C25.5779 17.1284 25.8111 16.9886 26.0909 16.8176C26.1374 16.7865 26.184 16.771 26.2307 16.7398C26.324 16.6933 26.4017 16.6467 26.4949 16.5845C26.5105 16.569 26.5415 16.5534 26.5727 16.5224C26.5882 16.5068 26.6037 16.5068 26.6037 16.4912C26.8213 16.3047 26.868 15.9939 26.7125 15.7918C26.6348 15.683 26.4949 15.6209 26.355 15.6209C26.2308 15.6209 26.1219 15.6675 26.0131 15.7452L25.9821 15.7762C25.951 15.7918 25.9354 15.8229 25.9044 15.8384C25.8266 15.9162 25.7644 15.9783 25.7023 16.056C25.6713 16.0871 25.6402 16.1337 25.5935 16.1648C25.3759 16.398 25.1738 16.5845 24.9718 16.7243C24.9252 16.7554 24.8786 16.771 24.832 16.771C24.8009 16.771 24.7698 16.771 24.7387 16.7554H24.7077L24.5211 16.8798C24.319 16.6622 24.1015 16.4757 23.8839 16.2892C22.9471 15.5569 21.8196 15.1091 20.6356 14.9992L20.6201 14.7971L20.589 14.7661C20.5424 14.7194 20.4802 14.6728 20.4646 14.564C20.4491 14.3153 20.4802 14.0356 20.5113 13.7247V13.7092C20.5113 13.6625 20.5268 13.6004 20.5424 13.5538C20.5579 13.4606 20.5734 13.3672 20.589 13.2585V13.1186C20.589 12.8389 20.3714 12.6058 20.1072 12.6058C19.9828 12.6058 19.8585 12.6679 19.7653 12.7611C19.6721 12.8544 19.6254 12.9787 19.6254 13.1186V13.2429C19.6254 13.3517 19.641 13.445 19.672 13.5382C19.6875 13.5849 19.6875 13.6315 19.7031 13.6937V13.7092C19.7341 14.02 19.7808 14.2998 19.7497 14.5485C19.7342 14.6573 19.672 14.7039 19.6254 14.7505L19.5944 14.7816L19.5788 14.9836C19.299 15.0147 19.0192 15.0457 18.7395 15.1079C17.5428 15.3722 16.4859 15.9784 15.6622 16.8486L15.5068 16.7398H15.4757C15.4447 16.7398 15.4135 16.7554 15.3825 16.7554C15.3358 16.7554 15.2892 16.7398 15.2426 16.7088C15.0405 16.569 14.8385 16.3668 14.6209 16.1337C14.5899 16.1027 14.5588 16.056 14.5121 16.025C14.4499 15.9472 14.3877 15.885 14.31 15.8074C14.2945 15.7918 14.2634 15.7763 14.2324 15.7452C14.2168 15.7297 14.2013 15.7297 14.2013 15.7141C14.105 15.6346 13.9843 15.5906 13.8594 15.5897C13.7194 15.5897 13.5796 15.6519 13.5019 15.7607C13.3464 15.9628 13.3931 16.2736 13.6106 16.4601C13.6262 16.4601 13.6262 16.4757 13.6417 16.4757C13.6727 16.4912 13.6884 16.5223 13.7194 16.5378C13.8127 16.5999 13.8904 16.6466 13.9837 16.6933C14.0303 16.7088 14.0769 16.7398 14.1236 16.771C14.4033 16.9419 14.6364 17.0818 14.823 17.2528C14.9007 17.3304 14.9007 17.4082 14.9007 17.4859V17.5169L15.056 17.6569C15.025 17.7034 14.9939 17.7346 14.9783 17.7812C14.2012 19.009 13.9059 20.4544 14.108 21.8843L13.9059 21.9464C13.9059 21.962 13.8904 21.962 13.8904 21.9774C13.8594 22.0396 13.8127 22.1018 13.7194 22.1484C13.4863 22.2262 13.2066 22.2573 12.8802 22.2884H12.8646C12.818 22.2884 12.7558 22.2884 12.7092 22.3039C12.616 22.3039 12.5227 22.3194 12.414 22.3349C12.3829 22.3349 12.3518 22.3506 12.3207 22.3506C12.3052 22.3506 12.2896 22.3506 12.274 22.3661C11.9943 22.4282 11.8233 22.6924 11.87 22.941C11.9166 23.1587 12.1187 23.2986 12.3673 23.2986C12.414 23.2986 12.445 23.2986 12.4917 23.283C12.5072 23.283 12.5227 23.283 12.5227 23.2675C12.5538 23.2675 12.5848 23.252 12.6159 23.252C12.7248 23.2209 12.8025 23.1898 12.8958 23.1432C12.9423 23.1276 12.9889 23.0965 13.0356 23.0811H13.0511C13.3464 22.9722 13.6106 22.8789 13.8594 22.8479H13.8904C13.9837 22.8479 14.0459 22.8945 14.0924 22.9256C14.108 22.9256 14.108 22.9411 14.1235 22.9411L14.3412 22.9101C14.7142 24.0601 15.4291 25.0859 16.3771 25.8319C16.5947 26.0028 16.8123 26.1428 17.0454 26.2827L16.9522 26.4846C16.9522 26.5002 16.9677 26.5002 16.9677 26.5157C16.9988 26.5779 17.0298 26.6556 16.9988 26.7644C16.9056 26.9976 16.7657 27.2307 16.5947 27.4949V27.5104C16.5636 27.5571 16.5326 27.5882 16.5015 27.6347C16.4393 27.7125 16.3927 27.7902 16.3305 27.8834C16.3149 27.899 16.2994 27.93 16.2839 27.9612C16.2839 27.9767 16.2684 27.9922 16.2684 27.9922C16.144 28.2565 16.2373 28.5518 16.4704 28.6605C16.5325 28.6916 16.5947 28.7072 16.6569 28.7072C16.8434 28.7072 17.0299 28.5828 17.1232 28.4118C17.1232 28.3963 17.1387 28.3808 17.1387 28.3808C17.1542 28.3497 17.1698 28.3187 17.1853 28.303C17.232 28.1943 17.2475 28.1165 17.2785 28.0233L17.3252 27.8834C17.434 27.5726 17.5117 27.3239 17.6516 27.1064C17.7137 27.0131 17.7915 26.9976 17.8536 26.9664C17.8691 26.9664 17.8691 26.9664 17.8846 26.9509L17.9935 26.7489C18.6774 27.0131 19.4234 27.1529 20.1693 27.1529C20.6201 27.1529 21.0864 27.1064 21.5216 26.9976C21.7954 26.9363 22.0653 26.8585 22.3297 26.7644L22.4229 26.9354C22.4385 26.9354 22.4385 26.9354 22.454 26.9509C22.5318 26.9664 22.5939 26.9976 22.6561 27.0908C22.7804 27.3084 22.8736 27.5726 22.9824 27.8679V27.8834L23.0291 28.0233C23.0601 28.1165 23.0757 28.2098 23.1222 28.303C23.1379 28.3341 23.1534 28.3497 23.1689 28.3808C23.1689 28.3963 23.1845 28.4118 23.1845 28.4118C23.2777 28.5983 23.4642 28.7072 23.6507 28.7072C23.7129 28.7072 23.7751 28.6916 23.8372 28.6605C23.946 28.5984 24.0393 28.5051 24.0704 28.3808C24.1015 28.2565 24.1015 28.1165 24.0394 27.9922C24.0394 27.9767 24.0237 27.9767 24.0237 27.9612C24.0082 27.9301 23.9927 27.8991 23.9772 27.8834C23.9305 27.7902 23.8684 27.7125 23.8062 27.6347C23.7751 27.5882 23.7441 27.5571 23.713 27.5105V27.4949C23.5419 27.2307 23.3865 26.9976 23.3088 26.7644C23.2778 26.6556 23.3088 26.5935 23.3244 26.5158C23.3244 26.5002 23.3399 26.5002 23.3399 26.4847L23.2622 26.2982C24.0859 25.8164 24.7853 25.1325 25.3138 24.2933C25.5935 23.8581 25.8111 23.3763 25.9665 22.8945L26.153 22.9255C26.1686 22.9255 26.1686 22.91 26.184 22.91C26.2462 22.8789 26.2929 22.8324 26.3862 22.8324H26.4172C26.6659 22.8634 26.9301 22.9566 27.2254 23.0654H27.241C27.2876 23.081 27.3341 23.112 27.3808 23.1276C27.4741 23.1742 27.5518 23.2053 27.6606 23.2364C27.6916 23.2364 27.7227 23.252 27.7538 23.252C27.7694 23.252 27.7849 23.252 27.8004 23.2675C27.8471 23.283 27.8781 23.283 27.9248 23.283C28.1579 23.283 28.3599 23.1276 28.4221 22.9256C28.4221 22.7391 28.2512 22.4904 27.9714 22.4128V22.4127ZM20.7754 21.6511L20.0916 21.9775L19.4078 21.6511L19.2369 20.9207L19.7031 20.3301H20.4646L20.9309 20.9207L20.7755 21.6511H20.7754ZM24.832 20.0348C24.9525 20.5487 24.9893 21.0788 24.9408 21.6044L22.5628 20.9207C22.3452 20.8586 22.2209 20.6409 22.2675 20.4234C22.283 20.3612 22.3142 20.299 22.3608 20.2524L24.2414 18.5583C24.5055 18.9935 24.7076 19.4909 24.832 20.0348ZM23.4954 17.6258L21.4594 19.0712C21.2884 19.18 21.0552 19.1488 20.9154 18.978C20.8688 18.9313 20.8533 18.8691 20.8376 18.807L20.6978 16.2736C21.7563 16.3955 22.7423 16.8721 23.4954 17.6258ZM18.9882 16.3512C19.1592 16.3202 19.3145 16.2891 19.4855 16.258L19.3457 18.7447C19.3301 18.9622 19.1592 19.1488 18.926 19.1488C18.8639 19.1488 18.7861 19.1332 18.7395 19.1022L16.6724 17.6258C17.3097 16.9886 18.1023 16.5532 18.9882 16.3512ZM15.9264 18.5582L17.7759 20.2056C17.9468 20.3455 17.9624 20.6097 17.8225 20.7807C17.7759 20.8428 17.7138 20.8894 17.636 20.9051L15.227 21.6044C15.1338 20.5476 15.3669 19.4752 15.9264 18.5582ZM15.5067 22.7701L17.978 22.3504C18.18 22.3348 18.3665 22.4748 18.4131 22.6768C18.4286 22.77 18.4286 22.8478 18.3976 22.9255L17.4495 25.2101C16.5792 24.6506 15.8797 23.7958 15.5067 22.7701ZM21.1796 25.8629C20.8221 25.9406 20.4646 25.9872 20.0916 25.9872C19.5477 25.9872 19.0192 25.894 18.522 25.7386L19.7497 23.5161C19.874 23.3762 20.0761 23.3141 20.2471 23.4073C20.3196 23.4518 20.383 23.5098 20.4336 23.5782L21.6303 25.7386C21.4904 25.7852 21.335 25.8163 21.1795 25.8629H21.1796ZM24.2102 23.7026C23.8217 24.3242 23.3088 24.8216 22.7183 25.2101L21.7391 22.8632C21.6925 22.6768 21.7702 22.4748 21.9567 22.3814C22.0188 22.3504 22.0965 22.3348 22.1743 22.3348L24.661 22.7545C24.5677 23.0964 24.4123 23.4073 24.2102 23.7026Z"
      fill="white" />
  </g>
  <defs>
    <clipPath id="clip0_1002_349">
      <rect width="24.09" height="23.4313" fill="white" transform="translate(8 9)" />
    </clipPath>
  </defs>
</svg>