<svg width="40" height="40" viewBox="0 0 41 41" fill="none" xmlns="http://www.w3.org/2000/svg">
  <circle cx="20.5" cy="20.5" r="20" fill="#2D2E32"/>
  <path fill-rule="evenodd" clip-rule="evenodd" d="M20.9131 30.5L20.113 30.318C20.113 30.318 20.2108 27.6039 18.7469 27.4091C17.7713 26.6558 18.9034 -4.5389 22.4161 27.3051C22.4161 27.3051 21.206 27.7076 20.9913 28.3961C20.757 29.0714 20.9131 30.5 20.9131 30.5Z" fill="white"/>
  <path fill-rule="evenodd" clip-rule="evenodd" d="M20.9131 30.5L20.113 30.318C20.113 30.318 20.2108 27.6039 18.7469 27.4091C17.7713 26.6558 18.9034 -4.5389 22.4161 27.3051C22.4161 27.3051 21.206 27.7076 20.9913 28.3961C20.757 29.0714 20.9131 30.5 20.9131 30.5Z" fill="#A6A385"/>
  <path fill-rule="evenodd" clip-rule="evenodd" d="M21.3426 27.8771C21.3426 27.8771 28.349 24.8121 26.7094 18.4353C25.1288 13.7992 21.4012 12.2797 20.9913 11.6953C20.5426 11.2797 20.113 10.5525 20.113 10.5525L20.4059 23.4484C20.4059 23.4615 19.8009 27.3965 21.3428 27.8772" fill="white"/>
  <path fill-rule="evenodd" clip-rule="evenodd" d="M21.3426 27.8771C21.3426 27.8771 28.349 24.8121 26.7094 18.4353C25.1288 13.7992 21.4012 12.2797 20.9913 11.6953C20.5426 11.2797 20.113 10.5525 20.113 10.5525L20.4059 23.4484C20.4059 23.4615 19.8009 27.3965 21.3428 27.8772" fill="#499D4A"/>
  <path fill-rule="evenodd" clip-rule="evenodd" d="M19.7034 28.0454C19.7034 28.0454 13.1263 25.0583 13.5167 19.7987C13.8874 14.539 18.5322 11.9546 19.43 11.4871C20.0156 11.0715 20.035 10.9156 20.0742 10.5C20.484 11.0845 20.406 19.2403 20.4643 20.2012C20.6399 23.9025 20.1522 27.3442 19.7034 28.0454Z" fill="white"/>
  <path fill-rule="evenodd" clip-rule="evenodd" d="M19.7034 28.0454C19.7034 28.0454 13.1263 25.0583 13.5167 19.7987C13.8874 14.539 18.5322 11.9546 19.43 11.4871C20.0156 11.0715 20.035 10.9156 20.0742 10.5C20.484 11.0845 20.406 19.2403 20.4643 20.2012C20.6399 23.9025 20.1522 27.3442 19.7034 28.0454Z" fill="#58AA50"/>
</svg>
