<svg width="40" height="40" viewBox="0 0 41 41" fill="none" xmlns="http://www.w3.org/2000/svg">
<circle cx="20" cy="20.5" r="20" fill="#2D2E32"/>
<path fill-rule="evenodd" clip-rule="evenodd" d="M14.6135 13.6681C14.4141 13.6674 14.2154 13.6927 14.0225 13.7434V13.7697H14.0511C14.1893 13.9782 14.3433 14.1758 14.5118 14.3607C14.6278 14.591 14.7287 14.8206 14.8438 15.051L14.8724 15.0216C14.9794 14.9367 15.0631 14.8261 15.1157 14.7002C15.1684 14.5742 15.1883 14.4369 15.1736 14.3012C15.1105 14.204 15.0527 14.1035 15.0004 14.0001C14.9139 13.8563 14.7264 13.784 14.6112 13.6688" fill="#5D87A1"/>
<path fill-rule="evenodd" clip-rule="evenodd" d="M28.9132 26.231C27.9635 26.1643 27.0107 26.3019 26.1187 26.6345C25.9027 26.7211 25.5579 26.7211 25.5278 26.9943C25.6437 27.1095 25.6572 27.2955 25.7589 27.4558C25.956 27.7896 26.2095 28.0869 26.5079 28.3343C26.809 28.5647 27.1102 28.7943 27.4301 28.9961C27.991 29.3431 28.6256 29.5441 29.1721 29.8897C29.4898 30.0914 29.806 30.3504 30.1237 30.5672C30.2818 30.6824 30.3819 30.8683 30.5837 30.9436V30.8999C30.5244 30.7399 30.4511 30.5855 30.3646 30.4385C30.2208 30.2954 30.0763 30.1652 29.9317 30.0214C29.5094 29.463 29.0042 28.9725 28.4336 28.567C27.9721 28.2493 26.9634 27.8142 26.7774 27.2872L26.7481 27.2578C27.0857 27.21 27.4185 27.1324 27.7425 27.026C28.2319 26.8965 28.6783 26.9258 29.1819 26.8001C29.413 26.7421 29.8308 26.5984 29.8308 26.5984V26.3725C29.5734 26.1166 29.3889 25.774 29.1179 25.5324C28.3806 24.8888 27.5949 24.3029 26.7676 23.7798C26.3257 23.4945 25.7559 23.3108 25.2854 23.0677C25.1152 22.9818 24.8337 22.9397 24.7305 22.7967C24.4965 22.4534 24.3006 22.0856 24.1464 21.6998C23.7252 20.8889 23.3357 20.0619 22.9787 19.2208C22.7684 18.6658 22.5259 18.1236 22.2523 17.597C20.9321 15.3524 19.0265 13.5091 16.7394 12.2641C16.1623 11.9847 15.5488 11.7881 14.9169 11.6799C14.56 11.6648 14.2047 11.637 13.8486 11.6234C13.6188 11.4728 13.4001 11.3058 13.1944 11.1235C12.3799 10.6079 10.2871 9.49973 9.68784 10.967C9.3039 11.8937 10.2585 12.8046 10.5859 13.2751C10.8621 13.6068 11.1054 13.9646 11.3124 14.3433C11.4125 14.5857 11.4411 14.8424 11.5382 15.0961C11.7472 15.7474 11.9953 16.3854 12.2813 17.0068C12.4342 17.3139 12.6104 17.6088 12.8082 17.8891C12.9234 18.0464 13.1222 18.1149 13.1651 18.3746C13.0072 18.714 12.8968 19.0734 12.8368 19.4429C12.588 20.2287 12.4964 21.0559 12.5673 21.8772C12.6382 22.6984 12.8703 23.4977 13.2501 24.2293C13.476 24.5853 14.0195 25.369 14.746 25.0694C15.3866 24.8134 15.2443 24.0012 15.4295 23.2897C15.4717 23.1174 15.4438 23.0044 15.5289 22.8908V23.0293C15.5289 23.0293 15.8925 23.828 16.0732 24.2338C16.5645 24.9783 17.1749 25.637 17.8799 26.1836C18.1588 26.427 18.3835 26.7263 18.5394 27.0621V27.3203H18.8609C18.8542 27.2039 18.8219 27.0904 18.7663 26.9878C18.7108 26.8853 18.6333 26.7963 18.5394 26.7271C18.2758 26.4558 18.0344 26.1637 17.8175 25.8538C17.2282 25.0146 16.7085 24.1286 16.2637 23.2047C16.0378 22.753 15.8473 22.2576 15.6667 21.8067C15.5839 21.6328 15.5839 21.3701 15.4446 21.2797C15.1874 21.584 14.9643 21.9154 14.7791 22.2682C14.5543 22.9811 14.4235 23.7204 14.3899 24.4671C14.3349 24.4822 14.362 24.4671 14.3349 24.4958C13.8915 24.3791 13.7387 23.8995 13.5716 23.493C13.1399 22.2392 13.0963 20.8844 13.4466 19.6055C13.543 19.3006 13.9608 18.34 13.7937 18.0487C13.7101 17.7709 13.4323 17.612 13.2803 17.393C13.0861 17.0983 12.9191 16.7866 12.7811 16.4617C12.4507 15.6517 12.2835 14.7483 11.9237 13.9323C11.7245 13.5398 11.4926 13.1648 11.2303 12.8114C10.9403 12.4582 10.6845 12.0784 10.4662 11.6769C10.397 11.5165 10.2999 11.2545 10.4105 11.0799C10.418 11.0314 10.4411 10.9866 10.4763 10.9524C10.5114 10.9181 10.5568 10.8963 10.6055 10.8902C10.7847 10.7306 11.2989 10.9338 11.4788 11.0212C11.9623 11.2115 12.423 11.4557 12.8519 11.7491C13.0461 11.8952 13.5038 12.2648 13.5038 12.2648H13.6393C14.1001 12.3649 14.618 12.2927 15.0516 12.4229C15.7817 12.6663 16.4785 13.0001 17.1256 13.4166C19.033 14.6325 20.5836 16.3328 21.6192 18.3438C21.7923 18.6743 21.8653 18.9776 22.0234 19.3224C22.3245 20.0301 22.701 20.7528 23.0021 21.4408C23.2677 22.1216 23.6113 22.7693 24.0259 23.3711C24.2412 23.6722 25.1062 23.8318 25.4954 23.9899C25.8334 24.1068 26.1651 24.2412 26.4891 24.3926C26.9792 24.6937 27.4678 25.0408 27.9292 25.3713C28.1588 25.5444 28.8793 25.9043 28.9229 26.1926" fill="#00758F"/>
</svg>
