<svg width="40" height="40" viewBox="0 0 40 40" fill="none" xmlns="http://www.w3.org/2000/svg">
  <circle cx="20" cy="20" r="20" fill="#2D2E32" />
  <path fill-rule="evenodd" clip-rule="evenodd"
    d="M21.9171 9.50563C21.7725 9.50765 21.6291 9.53307 21.4925 9.58091C22.7083 10.3804 21.2742 11.5382 21.9442 12.5169C21.8981 12.1877 21.9504 11.8522 22.0947 11.5528C22.239 11.2533 22.4688 11.0033 22.755 10.8343C22.9696 10.6559 23.1073 10.5919 23.0614 10.2968C22.9869 9.81353 22.3425 9.50563 21.9171 9.50563ZM23.6486 9.81729C23.4807 10.6627 23.2722 10.6936 22.6526 11.2379C22.411 11.4284 22.2404 11.6946 22.1685 11.9938C22.0965 12.293 22.1273 12.6077 22.2559 12.8873C19.6963 11.8936 16.4156 11.2928 14.0103 13.0122C13.1454 13.6303 12.6176 14.5179 11.5509 14.88C10.8613 15.1163 10.1838 15.0463 9.75167 15.7299C9.59364 15.9273 9.51108 16.1745 9.51881 16.4272C9.52653 16.68 9.62404 16.9217 9.79383 17.109C9.92256 17.2408 10.1702 17.3251 10.2726 17.4591C10.3321 17.5344 10.3306 17.6097 10.387 17.7098C10.4868 17.9431 10.631 18.1548 10.8116 18.3331C10.9223 18.4242 11.3025 18.513 11.3672 18.6101C11.4485 18.7313 11.2377 19.2124 11.4146 19.2877C11.5336 19.3426 11.8821 18.7276 11.916 18.6734C11.8468 19.1574 11.7557 20.0164 12.2999 19.3012C12.5582 18.9617 12.574 18.8495 13.0083 18.7743C13.2863 18.726 13.5673 18.6968 13.8492 18.6869C15.46 18.6306 17.0311 19.1942 18.2387 20.2618C19.4462 21.3293 20.1983 22.8193 20.34 24.4249C20.2587 24.0485 19.7671 23.4462 19.3094 23.5892C19.1144 23.6495 19.0421 23.986 18.9142 24.181C18.7524 24.4282 18.553 24.6486 18.3232 24.8344C18.3621 24.4694 18.3438 24.1006 18.269 23.7413C18.132 24.3044 17.8572 25.2387 17.1654 25.0873C16.9349 25.0522 16.719 24.9529 16.5422 24.8009C16.3654 24.6489 16.2349 24.4502 16.1656 24.2276C16.0761 23.6555 16.6806 22.9847 15.7087 22.9373C13.7589 22.8417 14.2098 25.7092 15.3609 26.4567C15.0963 26.486 14.8383 26.5579 14.5968 26.6698C15.328 27.0944 16.1518 27.3339 16.9967 27.3675C17.8416 27.4011 18.6818 27.2277 19.4444 26.8624C20.207 26.4972 20.8688 25.9511 21.3721 25.2718C21.8755 24.5924 22.2053 23.8003 22.3327 22.9644C22.5002 23.7299 22.4964 24.523 22.3214 25.2868C22.2278 25.6928 22.0879 26.0866 21.9043 26.4605C21.6555 26.9655 21.3248 27.4259 20.9257 27.8231C20.6893 28.0572 20.2557 28.2928 20.1066 28.5315C21.019 28.4105 21.9106 28.1653 22.7565 27.8027C21.8808 29.0022 20.7146 29.9594 19.3673 30.5844C20.8118 30.4822 22.2082 30.0221 23.4304 29.2455C24.6527 28.4689 25.6624 27.4003 26.3685 26.136C26.1435 27.4004 25.6436 28.6 24.9043 29.6501C25.8987 28.9844 26.7447 28.1203 27.3892 27.112C28.0338 26.1037 28.4628 24.973 28.6495 23.791C28.8349 24.6563 28.888 25.5447 28.8069 26.4258C29.6237 25.2908 30.1756 23.9869 30.4217 22.6103C30.6678 21.2337 30.6019 19.8194 30.2289 18.4716C29.9436 17.4239 29.5158 16.4203 28.9574 15.489C28.7418 15.1261 28.5058 14.7757 28.2505 14.4396C28.1504 14.3093 27.6152 13.8328 27.6152 13.6868C27.6106 13.7013 27.6069 13.7013 27.6039 13.6868C27.6039 16.1319 24.969 17.7015 22.7625 17.0466C23.6015 16.9815 24.3945 16.6371 25.0149 16.0685C25.6352 15.4999 26.0471 14.7398 26.1848 13.9096C26.3067 13.0386 26.1198 12.1525 25.6565 11.4049C25.1932 10.6574 24.4828 10.0957 23.6486 9.81729Z"
    fill="#EA2845" />
</svg>