<svg width="40" height="40" viewBox="0 0 41 41" fill="none" xmlns="http://www.w3.org/2000/svg">
<circle cx="20.5" cy="20.5" r="20" fill="#2D2E32"/>
<path d="M25.7817 17.8207H25.7742C25.7692 17.8196 25.7648 17.8169 25.7614 17.8132C25.7551 17.8064 25.7505 17.7982 25.7479 17.7894C25.7452 17.7805 25.7447 17.7711 25.7463 17.762L26.1716 15.164L28.1673 17.1575L26.0888 18.0338C26.0831 18.0361 26.077 18.0374 26.0708 18.0375H26.0662C26.0662 18.0375 26.061 18.0375 26.0557 18.0292C25.9778 17.9437 25.8849 17.873 25.7817 17.8207V17.8207ZM28.6755 17.6626L30.809 19.7938C31.2524 20.2365 31.4737 20.4578 31.555 20.7138C31.567 20.7513 31.5768 20.7895 31.5844 20.8282L26.4863 18.6721H26.478C26.4577 18.6639 26.4336 18.6541 26.4336 18.633C26.4336 18.6119 26.4577 18.6021 26.478 18.5939H26.4841L28.6755 17.6626ZM31.497 21.5125C31.303 21.803 31.0717 22.0667 30.809 22.2969L28.4045 24.6984L25.2939 24.051H25.2773C25.2502 24.0465 25.2201 24.042 25.2201 24.0164C25.2081 23.8882 25.1699 23.7639 25.1078 23.6511C25.0458 23.5383 24.9613 23.4395 24.8595 23.3607C24.8467 23.3479 24.8505 23.3283 24.8535 23.3095V23.3019L25.4392 19.714V19.702C25.4392 19.6749 25.4474 19.6425 25.473 19.6425C25.5984 19.6269 25.7194 19.5865 25.829 19.5237C25.9386 19.4609 26.0346 19.3769 26.1114 19.2767C26.1153 19.2706 26.1204 19.2654 26.1265 19.2616C26.1456 19.2566 26.1658 19.2593 26.1829 19.2691L31.497 21.5125ZM27.8512 25.251L23.8966 29.2017L24.5742 25.0455V25.0244C24.5794 25.0108 24.5937 25.0056 24.6081 24.9995H24.6148C24.7629 24.9364 24.894 24.8392 24.9973 24.7157C25.0095 24.6991 25.027 24.6871 25.0469 24.6818C25.0522 24.6811 25.0575 24.6811 25.0628 24.6818L27.8512 25.251ZM23.0595 30.0374L22.6139 30.483L17.6859 23.3682L17.6799 23.3607C17.671 23.3519 17.6658 23.34 17.6656 23.3275C17.6673 23.3186 17.6715 23.3102 17.6777 23.3035L17.6829 23.2967C17.698 23.2748 17.7108 23.253 17.7251 23.2289L17.7364 23.2101C17.7425 23.1967 17.7525 23.1855 17.765 23.1777C17.7779 23.1732 17.792 23.1732 17.8049 23.1777L23.265 24.3024C23.2803 24.3049 23.2948 24.3111 23.3072 24.3205C23.3129 24.3271 23.3166 24.3352 23.3177 24.3438V24.3544C23.357 24.4963 23.4283 24.6273 23.526 24.7374C23.6237 24.8476 23.7454 24.9339 23.8816 24.9898C23.8966 24.9973 23.8899 25.0146 23.8816 25.0327C23.8782 25.0407 23.8754 25.049 23.8733 25.0575C23.8078 25.4738 23.2176 29.0677 23.0595 30.0374V30.0374ZM22.1283 30.9671C21.9276 31.21 21.6739 31.4036 21.3868 31.5332C21.1707 31.6017 20.9388 31.6017 20.7228 31.5332C20.4661 31.4519 20.2448 31.2321 19.8013 30.7879L14.8524 25.8442L16.1449 23.841C16.1503 23.831 16.1577 23.8222 16.1668 23.8154C16.1746 23.8116 16.1833 23.8097 16.192 23.8097C16.2007 23.8097 16.2093 23.8116 16.2172 23.8154C16.3442 23.8545 16.4765 23.8741 16.6094 23.8733C16.7841 23.8723 16.957 23.8373 17.1183 23.7702C17.1245 23.7663 17.1317 23.7643 17.139 23.7643C17.1463 23.7643 17.1535 23.7663 17.1597 23.7702C17.1654 23.7759 17.1707 23.7819 17.1755 23.7883L22.1283 30.9671ZM14.3743 25.3677L13.2398 24.2332L15.4825 23.2779C15.4884 23.2768 15.4946 23.2768 15.5005 23.2779C15.5193 23.2779 15.5299 23.2967 15.5404 23.314L15.548 23.326C15.569 23.3584 15.5909 23.387 15.6119 23.4149L15.6187 23.4239C15.6247 23.4329 15.6187 23.442 15.6142 23.4518L14.3743 25.3677ZM12.7377 23.7318L11.3013 22.2969C11.0567 22.053 10.8798 21.8761 10.7571 21.7233L15.1234 22.6267H15.1399C15.167 22.6312 15.1971 22.6357 15.1971 22.6613C15.1971 22.6869 15.1648 22.7012 15.1369 22.7125L15.1241 22.7178L12.7377 23.7318ZM10.5056 20.9855C10.5109 20.893 10.5276 20.8015 10.5553 20.713C10.6366 20.4571 10.8564 20.2357 11.3013 19.7931L13.1405 17.9585C13.4416 18.4026 15.4448 21.2904 15.6782 21.6247L15.6857 21.6345C15.7008 21.6548 15.7173 21.6766 15.7008 21.6932C15.6168 21.7807 15.5438 21.878 15.4832 21.983C15.477 21.9963 15.4677 22.0079 15.4561 22.0169C15.4486 22.0199 15.4403 22.0199 15.4328 22.0169L10.5056 20.9855ZM13.6313 17.4661L16.1028 14.9969C16.3354 15.0985 17.1808 15.4554 17.9366 15.7746C18.5095 16.0162 19.0312 16.2368 19.1946 16.3068C19.2027 16.3089 19.2103 16.3126 19.217 16.3178C19.2236 16.323 19.229 16.3295 19.233 16.3369C19.2364 16.3477 19.2364 16.3593 19.233 16.37C19.2165 16.448 19.2082 16.5275 19.2081 16.6072C19.2082 16.8942 19.3206 17.1698 19.5213 17.3751C19.5379 17.3909 19.5213 17.415 19.507 17.436L19.4995 17.4473L16.9903 21.3303C16.9847 21.341 16.9767 21.3502 16.967 21.3574C16.9595 21.3606 16.9514 21.3622 16.9433 21.3622C16.9351 21.3622 16.9271 21.3606 16.9196 21.3574C16.8212 21.3317 16.7201 21.318 16.6185 21.3168C16.522 21.3199 16.426 21.3315 16.3316 21.3514C16.3271 21.3537 16.322 21.3548 16.317 21.3548C16.3119 21.3548 16.3068 21.3537 16.3023 21.3514C16.2925 21.3436 16.2841 21.3342 16.2774 21.3236L13.6313 17.4661ZM16.6034 14.4955L19.8036 11.2991C20.247 10.8564 20.4683 10.6351 20.725 10.5538C20.9411 10.4853 21.173 10.4853 21.389 10.5538C21.6457 10.6351 21.8671 10.8549 22.3105 11.2991L23.0038 11.9917L20.7266 15.5156C20.7207 15.5257 20.713 15.5346 20.704 15.542C20.6962 15.5455 20.6877 15.5473 20.6791 15.5473C20.6706 15.5473 20.6621 15.5455 20.6543 15.542C20.542 15.5095 20.4256 15.493 20.3087 15.493C20.05 15.4952 19.7994 15.5843 19.5973 15.746C19.5823 15.7603 19.5604 15.7512 19.5416 15.746C19.2443 15.6142 16.9324 14.6378 16.6034 14.4955V14.4955ZM23.4864 12.4742L25.5882 14.5738L25.0823 17.7055V17.7138C25.0821 17.7211 25.0805 17.7282 25.0778 17.7349C25.0725 17.7462 25.062 17.7484 25.0507 17.7507H25.0387C24.9347 17.7835 24.8368 17.8331 24.7488 17.8975L24.7383 17.9073C24.7357 17.911 24.7323 17.9141 24.7284 17.9165C24.7245 17.9188 24.7202 17.9203 24.7157 17.9208C24.7077 17.9215 24.6997 17.9202 24.6924 17.9171L21.4907 16.5582H21.4839C21.4636 16.55 21.4395 16.5402 21.4395 16.5191C21.4213 16.3453 21.3656 16.1776 21.2761 16.0275L21.2693 16.0162C21.2535 15.9906 21.237 15.9643 21.2498 15.9409L23.4864 12.4742ZM21.3213 17.2057L24.3227 18.4757C24.3401 18.4804 24.355 18.4918 24.3641 18.5073C24.3671 18.5174 24.3671 18.5281 24.3641 18.5381C24.3544 18.5857 24.3491 18.6341 24.3483 18.6827V18.767C24.3483 18.7873 24.3265 18.7964 24.3069 18.8046H24.3002C23.8251 19.0071 17.6242 21.648 17.6152 21.648C17.61 21.6486 17.6048 21.6482 17.5999 21.6466C17.595 21.645 17.5904 21.6424 17.5866 21.639C17.57 21.6232 17.5866 21.5991 17.6009 21.578L17.6084 21.5667L20.0754 17.7522L20.0799 17.7454C20.0942 17.7221 20.1107 17.6965 20.1371 17.6965L20.1619 17.7003C20.2132 17.7091 20.265 17.7141 20.317 17.7153C20.5007 17.716 20.6817 17.6714 20.844 17.5854C21.0064 17.4994 21.1449 17.3746 21.2475 17.2222C21.2523 17.214 21.2584 17.2066 21.2656 17.2004C21.2746 17.1966 21.2844 17.1951 21.2941 17.196C21.3038 17.1969 21.3132 17.2002 21.3213 17.2057V17.2057ZM17.8832 22.2578L24.6412 19.379C24.6485 19.3797 24.6553 19.3832 24.66 19.3888C24.6908 19.4189 24.7235 19.4471 24.7579 19.4731L24.7729 19.4829C24.7865 19.4912 24.8008 19.4995 24.8015 19.5138V19.5273L24.2219 23.0776V23.0919C24.2219 23.1198 24.2143 23.1514 24.188 23.1514C24.0342 23.162 23.8853 23.2099 23.7541 23.291C23.6229 23.372 23.5135 23.4838 23.4352 23.6166V23.6211C23.4291 23.6341 23.4194 23.6451 23.4073 23.6528C23.3948 23.6565 23.3814 23.6565 23.3689 23.6528L17.9795 22.5424C17.9795 22.5424 17.8892 22.2585 17.8832 22.2578Z" fill="url(#paint0_linear)"/>
<defs>
<linearGradient id="paint0_linear" x1="21.045" y1="10.5056" x2="21.045" y2="31.5844" gradientUnits="userSpaceOnUse">
<stop stop-color="#21C6B7"/>
<stop offset="1" stop-color="#4C9BBF"/>
</linearGradient>
</defs>
</svg>
