<svg width="40" height="40" viewBox="0 0 41 41" fill="none" xmlns="http://www.w3.org/2000/svg">
<circle cx="20.5" cy="20.5" r="20" fill="#2D2E32"/>
<g clip-path="url(#clip0)">
<path d="M20.2561 9.00666C20.2044 9.01137 20.0395 9.02783 19.8911 9.0396C16.4696 9.34806 13.2646 11.194 11.2347 14.0311C10.1044 15.6086 9.38149 17.3981 9.10831 19.2935C9.01176 19.955 9 20.1504 9 21.0475C9 21.9446 9.01176 22.14 9.10831 22.8016C9.76298 27.3246 12.982 31.1248 17.3478 32.5327C18.1297 32.7847 18.9539 32.9565 19.8911 33.0601C20.2561 33.1001 21.8339 33.1001 22.1989 33.0601C23.8167 32.8812 25.1872 32.481 26.5388 31.7911C26.746 31.6851 26.7861 31.6569 26.7578 31.6333C26.739 31.6192 25.8559 30.4349 24.7963 29.0033L22.87 26.4016L20.4563 22.8299C19.1282 20.8662 18.0355 19.2604 18.0261 19.2604C18.0167 19.2581 18.0073 20.8451 18.0026 22.7828C17.9955 26.1756 17.9932 26.3121 17.9508 26.3922C17.8896 26.5076 17.8424 26.5547 17.7435 26.6065C17.6682 26.6441 17.6022 26.6512 17.2467 26.6512H16.8392L16.731 26.583C16.6639 26.5409 16.6094 26.4815 16.5732 26.411L16.5237 26.3051L16.5284 21.5844L16.5355 16.8612L16.6085 16.7694C16.6461 16.72 16.7262 16.6565 16.7828 16.6258C16.8793 16.5787 16.917 16.574 17.3243 16.574C17.8047 16.574 17.8848 16.5928 18.0096 16.7294C18.0449 16.767 19.3518 18.7354 20.9154 21.1064C22.4791 23.4773 24.6174 26.7148 25.6676 28.3041L27.575 31.193L27.6715 31.1295C28.5264 30.5738 29.4306 29.7827 30.1464 28.9585C31.67 27.2092 32.652 25.0761 32.9817 22.8017C33.0782 22.14 33.09 21.9446 33.09 21.0476C33.09 20.1504 33.0782 19.9551 32.9817 19.2935C32.327 14.7705 29.108 10.9703 24.7422 9.56233C23.972 9.31277 23.1526 9.14085 22.2342 9.03724C22.0081 9.01372 20.4516 8.98784 20.2561 9.00666V9.00666ZM25.1872 16.2914C25.3002 16.3479 25.392 16.4563 25.425 16.5693C25.4438 16.6305 25.4485 17.9396 25.4438 20.8898L25.4368 25.1232L24.6903 23.9789L23.9414 22.8346V19.7573C23.9414 17.7677 23.9509 16.6493 23.965 16.5952C24.0026 16.4634 24.0851 16.3598 24.1982 16.2985C24.2947 16.2491 24.33 16.2444 24.6997 16.2444C25.0483 16.2444 25.1094 16.2491 25.1872 16.2914Z" fill="black"/>
</g>
<defs>
<clipPath id="clip0">
<rect width="24.09" height="24.09" fill="white" transform="translate(9 9)"/>
</clipPath>
</defs>
</svg>
