<svg width="41" height="41" viewBox="0 0 41 41" fill="none" xmlns="http://www.w3.org/2000/svg">
  <circle cx="20.5" cy="20.5" r="20" fill="#2D2E32"/>
  <path d="M20.5467 31.0875C20.2623 31.0876 19.9829 31.0128 19.7365 30.8707L17.1586 29.3445C16.7738 29.1292 16.9613 29.0531 17.0885 29.0087C17.4977 28.8823 17.8895 28.7052 18.2548 28.4817C18.2854 28.4675 18.3191 28.4614 18.3527 28.4639C18.3863 28.4664 18.4187 28.4774 18.4468 28.496L20.4277 29.6728C20.4646 29.6923 20.5057 29.7025 20.5474 29.7025C20.5892 29.7025 20.6303 29.6923 20.6671 29.6728L28.3921 25.214C28.4282 25.1923 28.4581 25.1617 28.4788 25.125C28.4996 25.0883 28.5104 25.0468 28.5103 25.0047V16.0856C28.5103 16.0428 28.4993 16.0007 28.4783 15.9634C28.4574 15.9261 28.4271 15.8948 28.3906 15.8726L20.6656 11.4176C20.6292 11.397 20.5881 11.3863 20.5463 11.3863C20.5045 11.3863 20.4634 11.397 20.427 11.4176L12.7066 15.8741C12.6697 15.8959 12.6392 15.9268 12.6178 15.9638C12.5964 16.0009 12.585 16.0429 12.5846 16.0856V25.0009C12.5847 25.043 12.596 25.0842 12.6173 25.1205C12.6386 25.1567 12.6691 25.1867 12.7058 25.2072L14.8245 26.43C15.9727 27.0037 16.6759 26.3276 16.6759 25.6484V16.8461C16.6759 16.7862 16.6997 16.7287 16.7421 16.6864C16.7845 16.644 16.8419 16.6202 16.9018 16.6202H17.8806C17.9405 16.6202 17.998 16.644 18.0403 16.6864C18.0827 16.7287 18.1065 16.7862 18.1065 16.8461V25.6492C18.1065 27.1814 17.2722 28.0585 15.8191 28.0585C15.1922 28.0694 14.5752 27.9018 14.04 27.5751L12.0094 26.4104C11.7628 26.2668 11.5583 26.0611 11.4161 25.8138C11.274 25.5665 11.1992 25.2862 11.1992 25.0009V16.0856C11.1985 15.7999 11.273 15.5191 11.4152 15.2713C11.5574 15.0235 11.7623 14.8174 12.0094 14.6739L19.735 10.2136C19.9839 10.0775 20.263 10.0061 20.5467 10.0061C20.8304 10.0061 21.1095 10.0775 21.3583 10.2136L29.0832 14.6739C29.3297 14.8172 29.5343 15.0226 29.6766 15.2697C29.8189 15.5167 29.8939 15.7968 29.8941 16.0819V25.0009C29.8937 25.2862 29.8186 25.5664 29.6764 25.8136C29.5341 26.0609 29.3296 26.2666 29.0832 26.4104L21.3583 30.8707C21.1115 31.013 20.8316 31.0878 20.5467 31.0875Z" fill="#83CD29"/>
  <path d="M19.0815 22.0171C19.0815 21.9572 19.1053 21.8998 19.1476 21.8574C19.19 21.815 19.2475 21.7912 19.3074 21.7912H20.3065C20.3599 21.7914 20.4115 21.8105 20.4521 21.8451C20.4928 21.8797 20.5199 21.9275 20.5286 21.9802C20.6792 22.9974 21.1309 23.5101 23.1736 23.5101C24.8006 23.5101 25.4941 23.142 25.4941 22.2784C25.4941 21.7807 25.2976 21.411 22.7685 21.1633C20.6543 20.954 19.3473 20.4857 19.3473 18.7961C19.3473 17.2376 20.6611 16.3077 22.8634 16.3077C25.3382 16.3077 26.5632 17.1668 26.7183 19.01C26.7207 19.0407 26.7167 19.0717 26.7067 19.1008C26.6966 19.13 26.6807 19.1568 26.6599 19.1796C26.6391 19.2024 26.6138 19.2207 26.5857 19.2333C26.5575 19.246 26.5271 19.2527 26.4962 19.2531H25.4903C25.4398 19.2524 25.3911 19.2349 25.3518 19.2032C25.3125 19.1715 25.2849 19.1276 25.2735 19.0785C25.0333 18.0086 24.4453 17.6668 22.8641 17.6668C21.0873 17.6668 20.881 18.2857 20.881 18.7494C20.881 19.3111 21.1249 19.4753 23.5237 19.7922C25.8976 20.1062 27.0255 20.5504 27.0255 22.2189C27.0255 23.9024 25.6221 24.8661 23.1743 24.8661C19.79 24.8707 19.0815 23.3189 19.0815 22.0171Z" fill="#83CD29"/>
</svg>
