<svg width="40" height="40" viewBox="0 0 40 40" fill="none" xmlns="http://www.w3.org/2000/svg">
  <circle cx="20" cy="20" r="20" fill="#2D2E32" />
  <path
    d="M25.655 25.3358C25.8028 24.1062 25.7585 23.9257 26.6743 24.1251L26.9068 24.1454C27.611 24.1774 28.5323 24.0321 29.0736 23.7806C30.2387 23.2399 30.9294 22.3375 29.7808 22.5744C27.1603 23.1152 26.9802 22.2278 26.9802 22.2278C29.7473 18.1221 30.904 12.9102 29.9054 11.6344C27.1821 8.1547 22.4682 9.80016 22.3893 9.84269L22.3641 9.8474C21.8464 9.73993 21.2669 9.67576 20.6159 9.66522C19.43 9.64564 18.5302 9.97613 17.8476 10.4937C17.8476 10.4937 9.43813 7.02906 9.8294 14.8508C9.91259 16.5147 12.2143 27.4412 14.9598 24.1409C15.9633 22.9341 16.9329 21.9137 16.9329 21.9137C17.4144 22.2334 17.991 22.3968 18.5955 22.3381L18.6424 22.2982C18.6277 22.448 18.6341 22.5946 18.661 22.7681C17.9539 23.5584 18.1617 23.6971 16.7478 23.988C15.317 24.2828 16.1575 24.8077 16.7062 24.9449C17.3715 25.1112 18.9104 25.3469 19.9504 23.8913L19.909 24.0573C20.1864 24.2794 20.1678 25.6527 20.2069 26.6338C20.2463 27.6151 20.3119 28.5307 20.512 29.0707C20.7121 29.6104 20.9481 31.0009 22.8064 30.6026C24.3594 30.2706 25.5468 29.7917 25.655 25.3358Z"
    fill="black" />
  <path
    d="M22.2013 31.5736C21.3795 31.5736 20.8442 31.2557 20.5192 30.9487C20.0285 30.4858 19.8339 29.8893 19.7176 29.5331L19.6674 29.3844C19.4332 28.7524 19.3538 27.8424 19.3068 26.6707C19.2996 26.4947 19.2947 26.3135 19.2893 26.1213C19.2853 25.9807 19.2804 25.8044 19.2733 25.62C18.9772 25.7611 18.6629 25.8605 18.3394 25.9151C17.7599 26.0141 17.137 25.9821 16.4875 25.8196C16.0292 25.705 15.5531 25.4675 15.2817 25.1007C14.4907 25.7935 13.7362 25.6996 13.3251 25.5624C12.6 25.3205 11.951 24.6409 11.3411 23.4852C10.9065 22.6618 10.4863 21.589 10.0918 20.2964C9.40485 18.0455 8.9684 15.6747 8.92963 14.8963C8.80768 12.46 9.46357 10.7177 10.8787 9.71811C13.1109 8.14134 16.4931 9.06862 17.7262 9.48963C18.5547 8.99033 19.5294 8.74736 20.6308 8.76486C21.2223 8.77446 21.7856 8.8264 22.3088 8.91975C22.8546 8.74811 23.9326 8.50175 25.1667 8.51719C27.4404 8.54429 29.3245 9.43035 30.615 11.0796C31.536 12.2562 31.0806 14.7271 30.7273 16.0954C30.2301 18.0199 29.3589 20.0668 28.2888 21.8487C28.5794 21.8508 29.0004 21.816 29.5989 21.6923C30.7796 21.4486 31.125 22.0817 31.2187 22.3652C31.5942 23.5023 29.9621 24.3616 29.453 24.598C28.8007 24.9008 27.7371 25.0853 26.8661 25.0454L26.8281 25.0429L26.5993 25.0228L26.5767 25.2136L26.5549 25.4001C26.4963 27.6584 26.1737 29.0885 25.51 30.0335C24.8142 31.0242 23.8472 31.3018 22.9954 31.4844C22.7048 31.5465 22.4407 31.5736 22.2013 31.5736ZM20.4718 23.3546C21.0023 23.7791 21.0488 24.5781 21.0904 26.0711C21.0956 26.2574 21.1005 26.4337 21.1071 26.5984C21.1271 27.0972 21.1739 28.265 21.3569 28.7584C21.3827 28.8283 21.4058 28.899 21.4303 28.9741C21.6341 29.5982 21.7363 29.9112 22.6176 29.7228C23.3575 29.5641 23.7378 29.4218 24.0356 28.998C24.4682 28.3818 24.7103 27.1423 24.7547 25.3139L25.6549 25.3358L24.7609 25.2285L24.7873 25.0053C24.8729 24.2694 24.9346 23.7379 25.4264 23.3864C25.8211 23.1044 26.2707 23.1317 26.6288 23.1963C26.2353 22.8989 26.1265 22.5502 26.0975 22.4071L26.0224 22.0373L26.2334 21.7243C27.4486 19.9214 28.4506 17.7055 28.9829 15.6446C29.5298 13.5272 29.363 12.4026 29.1963 12.19C26.9889 9.36937 23.161 10.534 22.7612 10.6661L22.6937 10.7026L22.3549 10.7656L22.1814 10.7297C21.703 10.6303 21.1715 10.5754 20.6018 10.5662C19.7067 10.5511 18.9846 10.7626 18.3925 11.2119L17.9816 11.5234L17.5049 11.3271C16.4864 10.9106 13.4947 10.0732 11.916 11.1914C11.0398 11.8121 10.6406 13.0282 10.7294 14.8062C10.7588 15.3932 11.1576 17.6153 11.8155 19.7704C12.7247 22.7487 13.551 23.7381 13.8959 23.8531C13.9562 23.8734 14.1124 23.752 14.2678 23.5653C14.916 22.7883 15.5872 22.0308 16.2805 21.2937L16.8018 20.7451L17.4321 21.1639C17.6862 21.3327 17.9664 21.4285 18.2542 21.4466L19.7573 20.1645L19.5396 22.3868C19.5347 22.4367 19.5322 22.5046 19.5518 22.6307L19.6173 23.0519L19.3331 23.3696L19.3004 23.4065L20.1262 23.7876L20.4718 23.3546Z"
    fill="black" />
  <path
    d="M29.7809 22.5745C27.1602 23.1152 26.98 22.2278 26.98 22.2278C29.7472 18.1219 30.9039 12.9098 29.9057 11.6344C27.1824 8.15489 22.4681 9.80035 22.3894 9.84308L22.364 9.84759C21.8462 9.74013 21.2668 9.67614 20.6154 9.6656C19.4295 9.64622 18.5301 9.97651 17.8475 10.4941C17.8475 10.4941 9.43782 7.02963 9.8289 14.8512C9.91209 16.5153 12.2138 27.4418 14.9593 24.1414C15.9628 22.9347 16.9323 21.9142 16.9323 21.9142C17.4139 22.234 17.9903 22.3974 18.5947 22.3386L18.6417 22.2987C18.627 22.4485 18.6338 22.5952 18.6605 22.7687C17.9533 23.5589 18.161 23.6977 16.7471 23.9886C15.3163 24.2833 16.1569 24.8082 16.7057 24.9454C17.3708 25.1118 18.9099 25.3474 19.9497 23.8919L19.9081 24.0579C20.1853 24.28 20.3799 25.5018 20.3474 26.6093C20.3146 27.7169 20.2928 28.4774 20.5113 29.0714C20.7296 29.6654 20.9472 31.0016 22.8059 30.6034C24.3589 30.2706 25.1637 29.4081 25.2759 27.9695C25.3553 26.9466 25.535 27.0979 25.5465 26.1834L25.6909 25.7506C25.8572 24.3641 25.7172 23.9169 26.6742 24.1249L26.9066 24.1452C27.6109 24.1772 28.5325 24.0319 29.0736 23.7805C30.2386 23.2401 30.9295 22.3375 29.7809 22.5745Z"
    fill="#336791" />
  <path
    d="M22.2954 31.0186C20.7461 31.0186 20.2553 29.7917 20.0545 29.2899C19.7605 28.5546 19.6971 25.7011 19.7626 23.3609C19.7636 23.3215 19.7723 23.2826 19.7884 23.2465C19.8045 23.2105 19.8275 23.178 19.8562 23.1508C19.8849 23.1237 19.9187 23.1026 19.9556 23.0886C19.9925 23.0745 20.0318 23.068 20.0712 23.0692C20.1107 23.0703 20.1495 23.0791 20.1855 23.0952C20.2215 23.1113 20.2539 23.1343 20.281 23.163C20.3081 23.1916 20.3293 23.2253 20.3434 23.2622C20.3574 23.299 20.3641 23.3383 20.363 23.3777C20.2875 26.0767 20.3946 28.5226 20.6121 29.0669C20.9517 29.9155 21.4666 30.6578 22.9223 30.3459C24.3043 30.0495 24.8219 29.5255 25.0524 28.1891C25.2293 27.1636 25.5792 24.2461 25.6223 23.6704C25.6252 23.631 25.6358 23.5926 25.6535 23.5574C25.6713 23.5222 25.6958 23.4908 25.7257 23.465C25.7556 23.4393 25.7903 23.4197 25.8278 23.4074C25.8652 23.3951 25.9048 23.3903 25.9441 23.3933C26.0235 23.3993 26.0973 23.4366 26.1492 23.4969C26.2011 23.5573 26.227 23.6357 26.2212 23.7151C26.1762 24.3146 25.828 27.2265 25.6443 28.2913C25.3722 29.8698 24.6685 30.5857 23.0482 30.9331C22.7729 30.992 22.5228 31.0184 22.2954 31.0186ZM13.8948 25.026C13.7594 25.0255 13.6249 25.0033 13.4965 24.9601C12.4902 24.6244 11.5317 22.9855 10.6475 20.0885C9.97452 17.8833 9.54805 15.5816 9.51059 14.8335C9.39974 12.6157 9.97075 11.0466 11.2082 10.1702C13.6561 8.43568 17.7742 10.0874 17.9483 10.1585C18.0221 10.1886 18.0808 10.2468 18.1117 10.3203C18.1425 10.3937 18.1429 10.4764 18.1128 10.5501C18.0827 10.6239 18.0245 10.6827 17.951 10.7135C17.8776 10.7444 17.7949 10.7448 17.7211 10.7146C17.6814 10.6985 13.7326 9.11642 11.5541 10.661C10.496 11.4112 10.0103 12.805 10.1102 14.8035C10.1416 15.4338 10.5401 17.6802 11.2217 19.9131C12.0111 22.4994 12.9094 24.1313 13.6864 24.3904C13.8084 24.4311 14.1795 24.5547 14.7101 23.9167C15.3288 23.1737 15.9707 22.4502 16.6348 21.7475C16.6904 21.6921 16.7655 21.6606 16.844 21.6598C16.9224 21.659 16.9981 21.689 17.0548 21.7433C17.1115 21.7976 17.1446 21.8719 17.1472 21.9504C17.1497 22.0288 17.1215 22.1052 17.0685 22.163C17.0594 22.1724 16.1562 23.1167 15.1719 24.3008C14.7058 24.8615 14.259 25.026 13.8948 25.026ZM26.9615 22.4956C26.9071 22.4955 26.8537 22.4806 26.8071 22.4526C26.7604 22.4245 26.7223 22.3843 26.6967 22.3362C26.6712 22.2881 26.6592 22.234 26.662 22.1796C26.6648 22.1253 26.6823 22.0727 26.7127 22.0275C29.51 17.8767 30.4919 12.8613 29.651 11.7866C28.5925 10.4342 27.098 9.72789 25.2086 9.68705C23.8097 9.65693 22.6978 10.0141 22.516 10.0764L22.4703 10.0951C22.2875 10.1525 22.1473 10.0523 22.0944 9.93529C22.0643 9.86822 22.0597 9.79243 22.0816 9.72223C22.1035 9.65202 22.1503 9.59224 22.2132 9.55418C22.2218 9.54909 22.2493 9.53743 22.2939 9.52105C22.6028 9.40794 23.7316 9.06918 25.1298 9.08517C27.2203 9.10738 28.9473 9.91346 30.1235 11.4166C30.6801 12.1279 30.6814 13.7663 30.1271 15.9122C29.5621 18.1001 28.499 20.4513 27.2105 22.3633C27.1529 22.4493 27.0581 22.4956 26.9615 22.4956ZM27.1046 24.4171C26.6269 24.4171 26.1988 24.3498 25.9424 24.1962C25.6789 24.0383 25.6287 23.8237 25.6221 23.7099C25.5502 22.447 26.2469 22.2272 26.6023 22.1269C26.5528 22.052 26.4824 21.9639 26.4095 21.873C26.2023 21.614 25.9185 21.2595 25.6998 20.7291C25.6656 20.6463 25.5583 20.4538 25.4341 20.2308C24.7605 19.0229 23.359 16.5094 24.2593 15.2223C24.676 14.6266 25.5058 14.3921 26.7284 14.5229C26.3687 13.4272 24.6561 9.99965 20.5922 9.93303C19.37 9.9127 18.3676 10.2885 17.6144 11.0491C15.9281 12.7521 15.9891 15.8336 15.9901 15.8644C15.9911 15.9039 15.9844 15.9431 15.9702 15.9799C15.9561 16.0167 15.9349 16.0504 15.9077 16.079C15.8806 16.1076 15.8481 16.1306 15.812 16.1467C15.776 16.1627 15.7372 16.1715 15.6978 16.1725C15.6584 16.1736 15.6191 16.1668 15.5823 16.1527C15.5455 16.1386 15.5118 16.1173 15.4832 16.0902C15.4546 16.0631 15.4316 16.0305 15.4156 15.9945C15.3995 15.9585 15.3907 15.9197 15.3897 15.8802C15.3859 15.7434 15.3231 12.5097 17.1878 10.6264C18.0605 9.74501 19.2093 9.30989 20.6022 9.33266C23.202 9.37538 24.8755 10.6971 25.8214 11.7983C26.8526 12.9985 27.3581 14.3223 27.3997 14.7642C27.4307 15.0928 27.1949 15.1585 27.1473 15.1683L27.0389 15.1707C25.8391 14.9786 25.0693 15.112 24.7511 15.5667C24.0662 16.5455 25.3921 18.9231 25.9582 19.9385C26.1028 20.1974 26.207 20.3847 26.2548 20.5003C26.4408 20.9512 26.6834 21.2542 26.8782 21.4977C27.0496 21.7119 27.1981 21.8977 27.2512 22.1156C27.2758 22.1589 27.6257 22.6765 29.7018 22.2479C30.2222 22.1406 30.5342 22.2323 30.6296 22.5208C30.8173 23.0882 29.7645 23.7501 29.1816 24.0208C28.6593 24.2636 27.8258 24.4171 27.1046 24.4171ZM26.2208 23.6604C26.2866 23.7268 26.6162 23.8414 27.2986 23.8121C27.9054 23.7861 28.5453 23.6542 28.9292 23.4759C29.4202 23.2478 29.7481 22.9928 29.9178 22.8187L29.8237 22.836C28.4963 23.1101 27.5574 23.0736 27.0331 22.7275C26.9978 22.7042 26.9639 22.679 26.9314 22.652C26.8746 22.6744 26.8221 22.6891 26.7846 22.6996C26.4873 22.783 26.1797 22.8694 26.2208 23.6604ZM17.6459 25.3382C17.3161 25.3382 16.9691 25.2932 16.6147 25.2046C16.2475 25.1127 15.6285 24.8363 15.6379 24.3821C15.6487 23.8727 16.3896 23.7198 16.6685 23.6624C17.6762 23.4549 17.7418 23.3717 18.0567 22.9717C18.1486 22.8552 18.2628 22.7101 18.4186 22.5362C18.6499 22.2773 18.9027 22.1461 19.1699 22.1461C19.3561 22.1461 19.5087 22.2091 19.6096 22.2511C19.931 22.3844 20.1992 22.7066 20.3095 23.0918C20.4091 23.4394 20.3614 23.7741 20.1759 24.034C19.5667 24.8871 18.6917 25.3382 17.6459 25.3382ZM16.2867 24.4079C16.3772 24.4779 16.5586 24.5715 16.7606 24.6219C17.0675 24.6987 17.3653 24.7377 17.6461 24.7377C18.5016 24.7377 19.1886 24.3835 19.6875 23.6848C19.7916 23.5392 19.7603 23.3542 19.7325 23.2569C19.6741 23.053 19.5292 22.8677 19.38 22.8057C19.299 22.7722 19.2319 22.7467 19.1701 22.7467C19.137 22.7467 19.0361 22.7467 18.8664 22.9365C18.7492 23.0683 18.6366 23.204 18.5287 23.3434C18.1365 23.8414 17.9568 24.0104 16.7899 24.2508C16.5052 24.3091 16.3591 24.3686 16.2867 24.4079ZM18.5957 23.0227C18.524 23.0226 18.4548 22.9969 18.4004 22.9501C18.346 22.9034 18.3102 22.8388 18.2993 22.7679C18.2918 22.7181 18.2868 22.6679 18.2842 22.6175C17.5194 22.6032 16.7814 22.275 16.2212 21.6905C15.5128 20.9514 15.1904 19.9274 15.3368 18.8811C15.4958 17.745 15.4364 16.742 15.4044 16.2032C15.3955 16.0534 15.3891 15.9452 15.3895 15.8703C15.3901 15.7752 15.3919 15.5232 16.2343 15.0962C16.534 14.9443 17.1347 14.6793 17.791 14.6114C18.8782 14.499 19.5949 14.9833 19.8094 15.9751C20.3885 18.6529 19.8554 19.8372 19.466 20.7022C19.3935 20.8633 19.325 21.0154 19.2702 21.1627L19.2219 21.2926C19.0162 21.8442 18.8383 22.3207 18.8929 22.6766C18.8989 22.7156 18.8971 22.7554 18.8878 22.7937C18.8784 22.832 18.8615 22.8681 18.8382 22.8999C18.8149 22.9317 18.7855 22.9585 18.7518 22.979C18.718 22.9994 18.6806 23.013 18.6416 23.019L18.5957 23.0227ZM15.9919 15.9535L16.0036 16.1678C16.0367 16.7275 16.0985 17.7691 15.9313 18.9645C15.8107 19.8274 16.0742 20.6696 16.6546 21.2749C17.1132 21.7533 17.7168 22.0174 18.3371 22.0174H18.3499C18.4194 21.7247 18.5347 21.4157 18.659 21.0827L18.707 20.9536C18.7689 20.7873 18.8413 20.6262 18.9181 20.4557C19.2928 19.623 19.7594 18.5866 19.2221 16.1021C19.1157 15.61 18.8577 15.3252 18.4337 15.2313C17.5627 15.039 16.2646 15.6941 15.9919 15.9535ZM17.8043 15.826C17.7893 15.9322 17.9987 16.2156 18.272 16.2535C18.5447 16.2917 18.7781 16.07 18.793 15.9638C18.8078 15.8577 18.5985 15.7406 18.3253 15.7026C18.0522 15.6646 17.8188 15.7199 17.8043 15.826ZM18.3347 16.3579L18.2581 16.3526C18.0887 16.3291 17.9174 16.2224 17.8002 16.0669C17.759 16.0124 17.6918 15.9066 17.7051 15.8121C17.7242 15.6736 17.8932 15.5906 18.1568 15.5906C18.2157 15.5906 18.2771 15.5949 18.3388 15.6036C18.483 15.6235 18.6168 15.6651 18.7156 15.7203C18.8869 15.8159 18.8995 15.9226 18.8918 15.9777C18.8707 16.1307 18.6273 16.3579 18.3347 16.3579ZM17.9039 15.8437C17.9124 15.9092 18.0746 16.1253 18.2858 16.1545L18.3349 16.1578C18.5299 16.1578 18.6755 16.0045 18.6926 15.9542C18.6746 15.92 18.5492 15.8349 18.3115 15.8018C18.2604 15.7944 18.2087 15.7907 18.157 15.7907C18.0042 15.7907 17.9231 15.8251 17.9039 15.8437ZM26.1105 15.6094C26.1254 15.7156 25.9161 15.999 25.643 16.037C25.3701 16.075 25.1365 15.8535 25.1215 15.7474C25.1072 15.6412 25.3165 15.524 25.5894 15.4861C25.8622 15.4479 26.0954 15.5035 26.1105 15.6094ZM25.5799 16.0912C25.3172 16.0912 25.0904 15.8868 25.0718 15.7542C25.0502 15.5949 25.3123 15.4739 25.5822 15.4365C25.6417 15.4282 25.7006 15.424 25.7572 15.424C25.9902 15.424 26.1446 15.4924 26.16 15.6026C26.17 15.674 26.1152 15.7841 26.0209 15.8834C25.9586 15.9488 25.8278 16.0619 25.6496 16.0865L25.5799 16.0912ZM25.7574 15.5242C25.7055 15.5242 25.6513 15.5281 25.5963 15.5356C25.3251 15.5735 25.1633 15.6823 25.1712 15.7406C25.1802 15.8048 25.3533 15.9913 25.5801 15.9913L25.636 15.9873C25.7841 15.9668 25.8954 15.8701 25.9484 15.8144C26.0318 15.7269 26.0649 15.6444 26.061 15.6164C26.0557 15.5791 25.9556 15.5242 25.7574 15.5242ZM26.5036 21.7053C26.4492 21.7054 26.3958 21.6906 26.3492 21.6626C26.3025 21.6346 26.2644 21.5945 26.2388 21.5465C26.2132 21.4985 26.2011 21.4444 26.2039 21.3901C26.2066 21.3357 26.2241 21.2832 26.2545 21.238C26.894 20.2829 26.7769 19.3089 26.6638 18.367C26.6154 17.9657 26.5657 17.5507 26.5785 17.1525C26.5917 16.7428 26.6439 16.4048 26.6941 16.0779C26.7538 15.6905 26.8102 15.3247 26.7869 14.8903C26.7848 14.8509 26.7904 14.8115 26.8035 14.7743C26.8166 14.7371 26.8369 14.7029 26.8633 14.6736C26.8896 14.6442 26.9215 14.6204 26.957 14.6033C26.9926 14.5863 27.0311 14.5764 27.0705 14.5743C27.1099 14.5722 27.1493 14.5778 27.1865 14.5909C27.2237 14.604 27.2579 14.6243 27.2872 14.6507C27.3166 14.677 27.3405 14.7089 27.3575 14.7444C27.3745 14.78 27.3844 14.8186 27.3865 14.8579C27.4132 15.3544 27.3494 15.7685 27.2877 16.1691C27.2401 16.4784 27.1908 16.7981 27.1789 17.1717C27.1674 17.5244 27.2124 17.8989 27.26 18.2953C27.3805 19.2969 27.5169 20.4321 26.7536 21.5721C26.7261 21.6131 26.6889 21.6468 26.6453 21.67C26.6017 21.6932 26.553 21.7054 26.5036 21.7053Z"
    fill="white" />
</svg>