<svg width="40" height="40" viewBox="0 0 41 41" fill="none" xmlns="http://www.w3.org/2000/svg">
  <circle cx="20.5" cy="20.5" r="20" fill="#2D2E32"/>
  <path d="M20.3913 23.0386C21.431 23.0386 22.2738 22.1958 22.2738 21.1561C22.2738 20.1164 21.431 19.2735 20.3913 19.2735C19.3516 19.2735 18.5088 20.1164 18.5088 21.1561C18.5088 22.1958 19.3516 23.0386 20.3913 23.0386Z" fill="#00D8FF"/>
  <path d="M20.3913 25.4723C18.1286 25.5271 15.8716 25.222 13.7046 24.5687C12.7036 24.2514 11.7699 23.7515 10.9508 23.0943C10.6383 22.8698 10.378 22.5803 10.1878 22.2458C9.99769 21.9112 9.88216 21.5395 9.84918 21.1561C9.84918 19.9113 11.2167 18.6914 13.5073 17.8933C15.7323 17.186 18.057 16.8432 20.3913 16.8782C22.6946 16.846 24.9881 17.1826 27.185 17.8752C28.1491 18.1825 29.0511 18.6583 29.8492 19.2803C30.1564 19.4943 30.4128 19.7733 30.6002 20.0975C30.7875 20.4216 30.9013 20.783 30.9335 21.1561C30.9335 22.4497 29.4049 23.7607 26.9426 24.5755C24.8175 25.2075 22.6081 25.51 20.3913 25.4723ZM20.3913 17.7788C18.158 17.7489 15.9341 18.0748 13.8032 18.7442C11.6948 19.4799 10.7498 20.4859 10.7498 21.1538C10.7498 21.8526 11.7656 22.9512 13.996 23.714C16.0691 24.3359 18.2277 24.6254 20.3913 24.5717C22.5121 24.6096 24.6262 24.3227 26.6602 23.7208C28.9757 22.9535 30.0299 21.8533 30.0299 21.1561C29.9919 20.9168 29.9047 20.688 29.7738 20.4841C29.6429 20.2802 29.4711 20.1057 29.2694 19.9716C28.5553 19.4197 27.7496 18.9981 26.8891 18.7261C24.7874 18.0663 22.5939 17.7465 20.3913 17.7788Z" fill="#00D8FF"/>
  <path d="M16.1142 30.5454C15.7629 30.5534 15.4158 30.4682 15.1082 30.2984C14.0299 29.6764 13.6564 27.8827 14.1089 25.4994C14.6079 23.2186 15.4725 21.0335 16.6692 19.0288C17.7917 17.0176 19.2288 15.1989 20.926 13.6417C21.6738 12.96 22.5365 12.4162 23.4741 12.0356C23.8133 11.8766 24.1832 11.7943 24.5577 11.7943C24.9323 11.7943 25.3022 11.8766 25.6413 12.0356C26.7625 12.6817 27.1338 14.6606 26.6104 17.2005C26.0961 19.3575 25.2539 21.4229 24.1135 23.3247C23.0304 25.3122 21.6386 27.115 19.99 28.6658C19.2149 29.3743 18.3155 29.9331 17.3371 30.3142C16.9454 30.4596 16.5319 30.5377 16.1142 30.5454ZM17.4493 19.4761C16.3078 21.3958 15.4792 23.4849 14.9945 25.6651C14.5781 27.8601 14.9779 29.1801 15.5592 29.516C16.1616 29.8646 17.624 29.5341 19.3996 27.9829C20.9734 26.4971 22.3019 24.7714 23.3356 22.8699C24.4282 21.0518 25.236 19.0771 25.7309 17.0145C26.2234 14.6237 25.7979 13.1598 25.194 12.8119C24.9677 12.7252 24.7258 12.6864 24.4837 12.6979C24.2416 12.7094 24.0045 12.7711 23.7874 12.8789C22.9528 13.2233 22.1855 13.7122 21.5208 14.3232C19.8993 15.8148 18.5266 17.5559 17.4546 19.4806L17.4493 19.4761Z" fill="#00D8FF"/>
  <path d="M24.6662 30.5551C23.6459 30.5551 22.3499 29.9377 21.0005 28.7773C19.2737 27.2059 17.8123 25.3657 16.673 23.3277C15.4913 21.3506 14.6336 19.1971 14.1323 16.949C13.9149 15.9599 13.8746 14.9401 14.0133 13.9369C14.0454 13.5648 14.1587 13.2042 14.3453 12.8806C14.5319 12.5571 14.7872 12.2784 15.0932 12.0642C16.2129 11.4158 18.1127 12.0822 20.0517 13.8036C21.6636 15.3264 23.0325 17.0873 24.1105 19.025C25.2914 20.956 26.1581 23.0623 26.6782 25.2652C26.905 26.2906 26.94 27.3491 26.7814 28.3872C26.7437 28.7701 26.6236 29.1402 26.4294 29.4723C26.2353 29.8044 25.9715 30.0905 25.6564 30.3112C25.3538 30.4789 25.0121 30.5631 24.6662 30.5551ZM17.4523 22.8744C18.5453 24.822 19.9413 26.5833 21.5879 28.092C23.2814 29.5491 24.6248 29.8624 25.2023 29.5228C25.8048 29.1726 26.249 27.7434 25.7912 25.4309C25.2896 23.3277 24.4583 21.3171 23.3281 19.4738C22.2994 17.6192 20.9928 15.933 19.4538 14.4738C17.6285 12.8533 16.1481 12.4911 15.545 12.8405C15.357 12.9933 15.2027 13.1834 15.0919 13.3988C14.9811 13.6142 14.9161 13.8503 14.9011 14.092C14.7814 14.9867 14.8204 15.8954 15.0163 16.7765C15.4985 18.9265 16.3211 20.9856 17.4531 22.8759L17.4523 22.8744Z" fill="#00D8FF"/>
</svg>
