<svg width="40" height="40" viewBox="0 0 41 41" fill="none" xmlns="http://www.w3.org/2000/svg">
<circle cx="20" cy="20.5" r="20" fill="#2D2E32"/>
<g clip-path="url(#clip0)">
<path d="M24.6923 25.4705C25.5812 25.3785 26.2556 24.6122 26.2249 23.6926C26.1943 22.773 25.428 22.0373 24.5084 22.0373H24.4471C23.4968 22.068 22.7612 22.8649 22.7919 23.8152C22.8225 24.275 23.0064 24.6735 23.2823 24.9494C22.2401 27.0032 20.6462 28.5052 18.2553 29.762C16.6307 30.6203 14.9449 30.9268 13.259 30.7123C11.8796 30.5284 10.8068 29.9154 10.1323 28.9037C9.15153 27.4017 9.0596 25.777 9.88724 24.1524C10.4697 22.9875 11.3891 22.1292 11.9716 21.7001C11.849 21.3016 11.665 20.6272 11.5731 20.1368C7.12846 23.3554 7.58829 27.7082 8.937 29.762C9.94849 31.2947 12.0022 32.245 14.2705 32.245C14.8835 32.245 15.4965 32.1836 16.1096 32.0305C20.0332 31.2641 23.0065 28.9344 24.6923 25.4705V25.4705ZM30.0872 21.6695C27.7576 18.9413 24.3245 17.4393 20.401 17.4393H19.9106C19.6347 16.8875 19.0523 16.5196 18.4086 16.5196H18.3472C17.3971 16.5503 16.6615 17.3473 16.6921 18.2976C16.7227 19.2172 17.489 19.9529 18.4086 19.9529H18.4698C19.1442 19.9222 19.7266 19.4931 19.9718 18.9106H20.5236C22.8532 18.9106 25.0602 19.585 27.0526 20.9031C28.5852 21.9147 29.6887 23.2328 30.3017 24.8268C30.8228 26.1142 30.7921 27.371 30.2404 28.4439C29.3822 30.0685 27.9415 30.9575 26.0411 30.9575C24.8149 30.9575 23.6502 30.5896 23.0371 30.3137C22.6999 30.6203 22.0868 31.1107 21.6577 31.4173C22.9758 32.0304 24.3245 32.3676 25.6119 32.3676C28.5545 32.3676 30.7309 30.7429 31.5585 29.1183C32.4474 27.3403 32.3861 24.275 30.0872 21.6695V21.6695ZM14.5157 25.9915C14.5464 26.9112 15.3127 27.6468 16.2322 27.6468H16.2936C17.2438 27.6162 17.9794 26.8192 17.9488 25.8689C17.9182 24.9493 17.1518 24.2137 16.2322 24.2137H16.171C16.1096 24.2137 16.0176 24.2137 15.9565 24.2442C14.6997 22.1598 14.1786 19.8915 14.3625 17.4392C14.485 15.6 15.0982 14.006 16.171 12.6878C17.0599 11.5537 18.7764 11.0019 19.9413 10.9713C23.1904 10.91 24.5696 14.9562 24.6617 16.5809C25.0602 16.6728 25.7345 16.8875 26.1943 17.0407C25.8264 12.0749 22.7612 9.5 19.8187 9.5C17.0599 9.5 14.5157 11.4925 13.5041 14.4352C12.0942 18.3589 13.0137 22.1292 14.7303 25.1026C14.5771 25.3172 14.485 25.6544 14.5157 25.9916V25.9915Z" fill="#764ABC"/>
</g>
<defs>
<clipPath id="clip0">
<rect width="24.09" height="22.9585" fill="white" transform="translate(8 9.5)"/>
</clipPath>
</defs>
</svg>
