<svg width="40" height="41" viewBox="0 0 40 41" fill="none" xmlns="http://www.w3.org/2000/svg">
  <circle cx="20" cy="20.5" r="20" fill="#2D2E32" />
  <g clip-path="url(#clip0_1002_336)">
    <path
      d="M29.9166 9.25024C29.5792 10.0596 29.1473 10.8263 28.6299 11.5343C26.3628 9.26848 23.2888 7.99551 20.0836 7.99512C13.4549 7.99512 8 13.4545 8 20.0906C7.99993 21.7293 8.33259 23.3509 8.97783 24.8572C9.62307 26.3635 10.5674 27.7231 11.7537 28.8537L12.1994 29.2489C14.3774 31.0853 17.1342 32.0932 19.9831 32.0949C26.2854 32.0949 31.5834 27.1565 32.032 20.8624C32.3616 17.7813 31.4578 13.8844 29.9166 9.25024ZM13.4705 28.9226C13.3735 29.0421 13.251 29.1385 13.112 29.2047C12.973 29.2709 12.821 29.3053 12.6671 29.3054C12.0991 29.3054 11.6344 28.8379 11.6344 28.2699C11.6344 27.7021 12.1021 27.2346 12.6671 27.2346C12.9023 27.2346 13.1347 27.316 13.3167 27.4668C13.7592 27.8244 13.8283 28.4801 13.4705 28.9226ZM29.8666 25.3019C26.8849 29.2771 20.5166 27.9373 16.4334 28.1287C16.4334 28.1287 15.7084 28.1728 14.9803 28.2919C14.9803 28.2919 15.2532 28.1758 15.6079 28.0408C18.4735 27.0432 19.8293 26.8486 21.5711 25.9544C24.851 24.2852 28.0931 20.6331 28.768 16.8335C27.5189 20.4888 23.7336 23.6295 20.2844 24.9065C17.9211 25.7788 13.6525 26.6259 13.6525 26.6259L13.4799 26.5348C10.5737 25.1199 10.4856 18.8228 15.7679 16.7897C18.0811 15.8985 20.2938 16.388 22.7922 15.7918C25.46 15.1581 28.5452 13.1562 29.8005 10.5458C31.2066 14.7221 32.8985 21.2606 29.8666 25.3019Z"
      fill="#77BC1F" />
  </g>
  <defs>
    <clipPath id="clip0_1002_336">
      <rect width="24.09" height="24.09" fill="white" transform="translate(8 8)" />
    </clipPath>
  </defs>
</svg>