<svg width="40" height="40" viewBox="0 0 41 41" fill="none" xmlns="http://www.w3.org/2000/svg">
  <circle cx="20" cy="20.5" r="20" fill="#2D2E32"/>
  <path d="M29.5967 10.0056H10.4933C9.94782 10.0056 9.50562 10.4478 9.50562 10.9933V30.0967C9.50562 30.6422 9.94782 31.0844 10.4933 31.0844H29.5967C30.1422 31.0844 30.5844 30.6422 30.5844 30.0967V10.9933C30.5844 10.4478 30.1422 10.0056 29.5967 10.0056Z" fill="#3178C6"/>
  <path fill-rule="evenodd" clip-rule="evenodd" d="M21.7351 26.3861V28.6957C22.1547 28.9028 22.6019 29.0486 23.063 29.1286C23.5959 29.2269 24.1367 29.2753 24.6786 29.2731C25.2067 29.2756 25.7335 29.2224 26.2504 29.1143C26.7145 29.0205 27.1573 28.8418 27.5566 28.5873C27.9272 28.3481 28.2327 28.0206 28.4456 27.6342C28.827 26.8342 28.8774 25.9161 28.5857 25.0792C28.4626 24.7662 28.2792 24.4805 28.0459 24.2383C27.7955 23.9807 27.5111 23.7586 27.2005 23.5781C26.8429 23.3687 26.4714 23.1841 26.0886 23.0255C25.7875 22.9006 25.5165 22.7791 25.2756 22.6612C25.0616 22.5587 24.8568 22.4381 24.6635 22.3006C24.5121 22.1944 24.3806 22.0624 24.2751 21.9106C24.1839 21.7728 24.1364 21.6106 24.1388 21.4454C24.1368 21.2933 24.1792 21.1439 24.2608 21.0155C24.3494 20.8812 24.4676 20.7689 24.6063 20.6873C24.7759 20.5874 24.9604 20.5155 25.1528 20.4742C25.3891 20.4218 25.6306 20.3965 25.8725 20.399C26.076 20.3997 26.2793 20.4142 26.4808 20.4426C26.6984 20.472 26.9138 20.5166 27.1252 20.5759C27.3403 20.6355 27.5507 20.711 27.7546 20.8017C27.9524 20.8899 28.1417 20.9963 28.3199 21.1194V18.9641C27.9489 18.8237 27.5641 18.7228 27.1719 18.663C26.6983 18.5941 26.2201 18.5616 25.7415 18.5659C25.2184 18.563 24.6968 18.6224 24.1877 18.7428C23.7276 18.8479 23.29 19.0348 22.8959 19.2946C22.5298 19.5385 22.2275 19.8666 22.0144 20.2514C21.7885 20.6788 21.6767 21.1572 21.6899 21.6403C21.6732 22.2793 21.8837 22.9035 22.2839 23.4019C22.7749 23.9546 23.394 24.3782 24.0869 24.6358C24.403 24.7663 24.6979 24.894 24.9714 25.019C25.2182 25.1288 25.4554 25.259 25.6806 25.4082C25.8622 25.5263 26.0217 25.6754 26.1518 25.8486C26.2663 26.0057 26.327 26.1955 26.325 26.3898C26.326 26.5355 26.2886 26.6788 26.2166 26.8054C26.1365 26.9414 26.024 27.0555 25.8891 27.1374C25.7203 27.2403 25.5356 27.3146 25.3426 27.3572C25.0911 27.4134 24.8339 27.44 24.5762 27.4363C24.0705 27.4353 23.5689 27.3462 23.0939 27.1728C22.5977 26.9937 22.1375 26.7273 21.7351 26.3861ZM17.8551 20.6361H20.8663V18.7337H12.4702V20.6361H15.4679V29.1082H17.8551V20.6361Z" fill="white"/>
</svg>
