<svg
  id="graphql"
  width="50"
  height="50"
  viewBox="0 0 50 50"
  fill="none"
  xmlns="http://www.w3.org/2000/svg"
>
  <circle cx="25" cy="25" r="25" fill="#25262A" />
  <path
    d="M14.5006 31.4082L25.2767 12.7425L26.2442 13.3006L15.4681 31.9663L14.5006 31.4082Z"
    fill="#E10098"
  />
  <path
    d="M14.2775 29.9165H35.8316V31.0337H14.2775V29.9165Z"
    fill="#E10098"
  />
  <path
    d="M14.7038 30.5443L15.2629 29.5768L26.0437 35.8006L25.4847 36.7681L14.7038 30.5443Z"
    fill="#E10098"
  />
  <path
    d="M24.0701 14.3208L24.6292 13.3533L35.41 19.578L34.851 20.5455L24.0701 14.3208Z"
    fill="#E10098"
  />
  <path
    d="M14.7067 19.5752L25.4875 13.3505L26.0465 14.318L15.2657 20.5427L14.7067 19.5752Z"
    fill="#E10098"
  />
  <path
    d="M23.8753 13.3015L24.8428 12.7425L35.6189 31.4082L34.6524 31.9663L23.8753 13.3015Z"
    fill="#E10098"
  />
  <path
    d="M15.133 18.8336H16.2502V31.2831H15.133V18.8336Z"
    fill="#E10098"
  />
  <path
    d="M33.8675 18.8336H34.9846V31.2831H33.8675V18.8336Z"
    fill="#E10098"
  />
  <path
    d="M24.807 35.4505L34.1837 30.037L34.6721 30.8821L25.2955 36.2956L24.807 35.4505Z"
    fill="#E10098"
  />
  <path
    d="M36.465 31.6464C36.2328 32.0499 35.8861 32.3754 35.4687 32.5818C35.0514 32.7882 34.5822 32.8661 34.1206 32.8058C33.6589 32.7454 33.2256 32.5494 32.8754 32.2426C32.5252 31.9358 32.2738 31.532 32.1532 31.0824C32.0326 30.6327 32.0481 30.1573 32.1977 29.7165C32.3474 29.2756 32.6245 28.889 32.9939 28.6057C33.3634 28.3224 33.8086 28.155 34.2732 28.1249C34.7378 28.0947 35.2009 28.203 35.6039 28.4361C36.1432 28.7481 36.5368 29.2613 36.6983 29.8632C36.8597 30.465 36.7758 31.1063 36.465 31.6464Z"
    fill="#E10098"
  />
  <path
    d="M17.7174 20.8232C17.4852 21.2267 17.1384 21.5523 16.7211 21.7586C16.3038 21.965 15.8346 22.043 15.373 21.9826C14.9113 21.9222 14.478 21.7262 14.1278 21.4194C13.7775 21.1127 13.5262 20.7089 13.4056 20.2592C13.285 19.8095 13.3005 19.3342 13.4501 18.8933C13.5998 18.4524 13.8769 18.0659 14.2463 17.7825C14.6157 17.4992 15.0609 17.3319 15.5255 17.3017C15.9901 17.2715 16.4532 17.3798 16.8562 17.6129C17.3956 17.9249 17.7892 18.4382 17.9506 19.04C18.1121 19.6418 18.0282 20.2831 17.7174 20.8232Z"
    fill="#E10098"
  />
  <path
    d="M13.6516 31.6464C13.4185 31.2433 13.3102 30.7802 13.3404 30.3156C13.3706 29.851 13.5379 29.4058 13.8213 29.0364C14.1046 28.667 14.4911 28.3899 14.932 28.2402C15.3729 28.0906 15.8482 28.0751 16.2979 28.1957C16.7476 28.3163 17.1514 28.5676 17.4582 28.9179C17.7649 29.2681 17.9609 29.7014 18.0213 30.1631C18.0817 30.6247 18.0037 31.0939 17.7974 31.5112C17.591 31.9286 17.2654 32.2753 16.8619 32.5075C16.3218 32.8183 15.6805 32.9022 15.0787 32.7407C14.4769 32.5793 13.9637 32.1857 13.6516 31.6464Z"
    fill="#E10098"
  />
  <path
    d="M32.3993 20.8232C32.1661 20.4202 32.0578 19.9571 32.088 19.4925C32.1182 19.0279 32.2856 18.5827 32.5689 18.2132C32.8522 17.8438 33.2388 17.5667 33.6796 17.417C34.1205 17.2674 34.5959 17.2519 35.0455 17.3725C35.4952 17.4932 35.899 17.7445 36.2058 18.0947C36.5126 18.4449 36.7085 18.8782 36.7689 19.3399C36.8293 19.8015 36.7514 20.2707 36.545 20.688C36.3386 21.1054 36.013 21.4521 35.6095 21.6843C35.0695 21.9951 34.4282 22.079 33.8263 21.9176C33.2245 21.7561 32.7113 21.3625 32.3993 20.8232Z"
    fill="#E10098"
  />
  <path
    d="M25.0583 38.2344C24.593 38.2344 24.1381 38.0964 23.7512 37.8378C23.3642 37.5793 23.0627 37.2118 22.8846 36.7819C22.7065 36.352 22.6599 35.8789 22.7507 35.4225C22.8415 34.9661 23.0656 34.5468 23.3946 34.2178C23.7237 33.8887 24.1429 33.6646 24.5993 33.5739C25.0557 33.4831 25.5288 33.5297 25.9587 33.7078C26.3887 33.8858 26.7561 34.1874 27.0147 34.5743C27.2732 34.9613 27.4112 35.4162 27.4112 35.8815C27.4121 36.1907 27.3518 36.4971 27.2339 36.7829C27.1159 37.0688 26.9427 37.3285 26.724 37.5472C26.5053 37.7658 26.2456 37.9391 25.9598 38.057C25.6739 38.175 25.3676 38.2352 25.0583 38.2344Z"
    fill="#E10098"
  />
  <path
    d="M25.0583 16.5796C24.593 16.5796 24.1381 16.4416 23.7512 16.183C23.3642 15.9245 23.0627 15.557 22.8846 15.1271C22.7065 14.6972 22.6599 14.2241 22.7507 13.7677C22.8415 13.3113 23.0656 12.892 23.3946 12.563C23.7237 12.2339 24.1429 12.0098 24.5993 11.919C25.0557 11.8282 25.5288 11.8748 25.9587 12.0529C26.3887 12.231 26.7561 12.5326 27.0147 12.9195C27.2732 13.3064 27.4112 13.7613 27.4112 14.2267C27.4121 14.5359 27.3518 14.8423 27.2339 15.1281C27.1159 15.414 26.9427 15.6737 26.724 15.8924C26.5053 16.111 26.2456 16.2843 25.9598 16.4022C25.6739 16.5202 25.3676 16.5804 25.0583 16.5796Z"
    fill="#E10098"
  />
</svg>