<svg
  id="node"
  width="70"
  height="70"
  viewBox="0 0 70 70"
  fill="none"
  xmlns="http://www.w3.org/2000/svg"
>
  <circle cx="35" cy="35" r="35" fill="#25262A" />
  <path
    d="M35.0817 53.5281C34.584 53.5283 34.095 53.3974 33.6639 53.1486L29.1524 50.4779C28.4791 50.101 28.8072 49.9679 29.0299 49.8902C29.746 49.669 30.4316 49.3591 31.0709 48.9679C31.1244 48.9431 31.1833 48.9324 31.2421 48.9368C31.3009 48.9412 31.3576 48.9605 31.4069 48.9929L34.8735 51.0523C34.938 51.0865 35.01 51.1043 35.083 51.1043C35.156 51.1043 35.2279 51.0865 35.2925 51.0523L48.8111 43.2495C48.8744 43.2116 48.9267 43.1579 48.963 43.0937C48.9992 43.0295 49.0182 42.9569 49.018 42.8832V27.2749C49.018 27.1999 48.9988 27.1263 48.9621 27.061C48.9254 26.9957 48.8725 26.9409 48.8085 26.902L35.2898 19.1057C35.2261 19.0698 35.1542 19.0509 35.081 19.0509C35.0078 19.0509 34.9359 19.0698 34.8722 19.1057L21.3615 26.9046C21.297 26.9427 21.2435 26.9968 21.2061 27.0617C21.1687 27.1266 21.1487 27.2 21.148 27.2749V42.8766C21.1482 42.9502 21.1679 43.0224 21.2052 43.0858C21.2425 43.1493 21.2959 43.2017 21.3601 43.2376L25.0679 45.3774C27.0772 46.3814 28.3079 45.1982 28.3079 44.0097V28.6056C28.3079 28.5008 28.3495 28.4003 28.4236 28.3261C28.4978 28.252 28.5983 28.2104 28.7031 28.2104H30.416C30.5209 28.2104 30.6214 28.252 30.6955 28.3261C30.7697 28.4003 30.8113 28.5008 30.8113 28.6056V44.0111C30.8113 46.6924 29.3514 48.2274 26.8084 48.2274C25.7114 48.2465 24.6315 47.9531 23.6949 47.3815L20.1414 45.3432C19.71 45.0919 19.352 44.7319 19.1032 44.2991C18.8544 43.8663 18.7236 43.3758 18.7236 42.8766V27.2749C18.7223 26.7749 18.8527 26.2833 19.1015 25.8497C19.3504 25.416 19.709 25.0555 20.1414 24.8043L33.6613 16.9989C34.0968 16.7606 34.5852 16.6357 35.0817 16.6357C35.5781 16.6357 36.0665 16.7606 36.502 16.9989L50.0207 24.8043C50.452 25.0551 50.81 25.4146 51.0591 25.8469C51.3081 26.2792 51.4393 26.7693 51.4397 27.2683V42.8766C51.439 43.3758 51.3076 43.8661 51.0587 44.2989C50.8097 44.7316 50.4519 45.0916 50.0207 45.3432L36.502 53.1486C36.0702 53.3978 35.5803 53.5287 35.0817 53.5281Z"
    fill="#83CD29"
  />
  <path
    d="M32.5176 37.6549C32.5176 37.5501 32.5593 37.4496 32.6334 37.3754C32.7075 37.3013 32.8081 37.2597 32.9129 37.2597H34.6614C34.7548 37.26 34.8451 37.2933 34.9162 37.3539C34.9874 37.4144 35.0348 37.4982 35.05 37.5904C35.3136 39.3705 36.1041 40.2677 39.6788 40.2677C42.5261 40.2677 43.7396 39.6234 43.7396 38.1121C43.7396 37.2412 43.3958 36.5943 38.9699 36.1608C35.2701 35.7945 32.9827 34.9749 32.9827 32.0182C32.9827 29.2908 35.2819 27.6635 39.1359 27.6635C43.4669 27.6635 45.6106 29.1669 45.8821 32.3924C45.8862 32.4463 45.8793 32.5004 45.8617 32.5515C45.8441 32.6025 45.8162 32.6495 45.7798 32.6893C45.7434 32.7292 45.6992 32.7612 45.6499 32.7833C45.6007 32.8055 45.5474 32.8173 45.4934 32.818H43.7331C43.6447 32.8168 43.5594 32.786 43.4906 32.7306C43.4218 32.6752 43.3736 32.5984 43.3536 32.5123C42.9333 30.64 41.9042 30.0418 39.1373 30.0418C36.0277 30.0418 35.6667 31.1249 35.6667 31.9365C35.6667 32.9195 36.0936 33.2067 40.2915 33.7614C44.4459 34.3109 46.4197 35.0882 46.4197 38.0081C46.4197 40.9542 43.9636 42.6408 39.6801 42.6408C33.7575 42.6487 32.5176 39.9331 32.5176 37.6549Z"
    fill="#83CD29"
  />
</svg>