<svg
  id="react"
  width="60"
  height="60"
  viewBox="0 0 60 60"
  fill="none"
  xmlns="http://www.w3.org/2000/svg"
>
  <circle cx="30" cy="30" r="30" fill="#25262A" />
  <path
    d="M29.837 33.8079C31.3965 33.8079 32.6608 32.5436 32.6608 30.9841C32.6608 29.4246 31.3965 28.1603 29.837 28.1603C28.2775 28.1603 27.0132 29.4246 27.0132 30.9841C27.0132 32.5436 28.2775 33.8079 29.837 33.8079Z"
    fill="#00D8FF"
  />
  <path
    d="M29.837 37.4585C26.4429 37.5406 23.0574 37.0831 19.8069 36.1031C18.3053 35.6271 16.9048 34.8772 15.6762 33.8915C15.2074 33.5547 14.817 33.1205 14.5317 32.6187C14.2465 32.1168 14.0732 31.5592 14.0237 30.9841C14.0237 29.117 16.0749 27.2872 19.5109 26.0899C22.8484 25.029 26.3354 24.5148 29.837 24.5673C33.2919 24.519 36.7322 25.0239 40.0275 26.0628C41.4736 26.5238 42.8266 27.2374 44.0237 28.1705C44.4846 28.4915 44.8691 28.91 45.1502 29.3962C45.4313 29.8824 45.602 30.4245 45.6502 30.9841C45.6502 32.9246 43.3573 34.8911 39.6638 36.1132C36.4762 37.0613 33.1621 37.515 29.837 37.4585ZM29.837 25.9182C26.487 25.8734 23.1512 26.3622 19.9548 27.3662C16.7922 28.4698 15.3746 29.9788 15.3746 30.9807C15.3746 32.0289 16.8984 33.6769 20.244 34.8211C23.3536 35.7539 26.5914 36.1881 29.837 36.1076C33.0182 36.1645 36.1893 35.734 39.2402 34.8312C42.7135 33.6803 44.2948 32.03 44.2948 30.9841C44.2378 30.6252 44.107 30.282 43.9107 29.9761C43.7143 29.6703 43.4567 29.4086 43.154 29.2074C42.0829 28.3796 40.8743 27.7472 39.5836 27.3391C36.4311 26.3494 33.1408 25.8697 29.837 25.9182Z"
    fill="#00D8FF"
  />
  <path
    d="M23.4213 45.0681C22.8944 45.0802 22.3737 44.9523 21.9123 44.6976C20.2948 43.7646 19.7346 41.0741 20.4134 37.4992C21.1619 34.078 22.4588 30.8003 24.2538 27.7932C25.9376 24.7764 28.0932 22.0484 30.639 19.7126C31.7607 18.6901 33.0548 17.8744 34.4612 17.3034C34.9699 17.065 35.5248 16.9414 36.0866 16.9414C36.6484 16.9414 37.2033 17.065 37.712 17.3034C39.3939 18.2725 39.9507 21.2409 39.1657 25.0507C38.3941 28.2863 37.1309 31.3844 35.4202 34.2371C33.7957 37.2183 31.7079 39.9226 29.235 42.2488C28.0724 43.3114 26.7233 44.1497 25.2557 44.7213C24.6681 44.9394 24.0479 45.0566 23.4213 45.0681ZM25.424 28.4641C23.7117 31.3437 22.4688 34.4774 21.7417 37.7477C21.1171 41.0402 21.7169 43.0202 22.5889 43.524C23.4925 44.047 25.686 43.5511 28.3494 41.2243C30.7101 38.9957 32.7029 36.4071 34.2534 33.5549C35.8923 30.8277 37.104 27.8657 37.8464 24.7718C38.5851 21.1855 37.9469 18.9897 37.0411 18.4679C36.7015 18.3378 36.3387 18.2796 35.9756 18.2969C35.6124 18.3142 35.2567 18.4067 34.9311 18.5684C33.6793 19.085 32.5283 19.8184 31.5313 20.7349C29.0991 22.9722 27.04 25.5838 25.4319 28.4709L25.424 28.4641Z"
    fill="#00D8FF"
  />
  <path
    d="M36.2493 45.0827C34.7188 45.0827 32.7749 44.1565 30.7508 42.4159C28.1605 40.059 25.9684 37.2985 24.2594 34.2416C22.4869 31.2759 21.2003 28.0457 20.4484 24.6735C20.1224 23.1898 20.0619 21.6601 20.27 20.1554C20.3181 19.5972 20.488 19.0564 20.7679 18.571C21.0478 18.0856 21.4307 17.6676 21.8897 17.3463C23.5693 16.3738 26.4191 17.3734 29.3276 19.9555C31.7454 22.2396 33.7987 24.881 35.4157 27.7876C37.1871 30.684 38.4872 33.8435 39.2673 37.1479C39.6075 38.6859 39.6599 40.2737 39.4221 41.8309C39.3655 42.4051 39.1854 42.9603 38.8941 43.4585C38.6028 43.9566 38.2073 44.3858 37.7346 44.7168C37.2807 44.9683 36.7681 45.0946 36.2493 45.0827ZM25.4285 33.5617C27.0679 36.4831 29.1619 39.1249 31.6318 41.3881C34.1721 43.5737 36.1871 44.0436 37.0535 43.5342C37.9571 43.0089 38.6235 40.8651 37.9368 37.3964C37.1844 34.2416 35.9374 31.2257 34.2421 28.4608C32.699 25.6789 30.7392 23.1496 28.4307 20.9608C25.6928 18.53 23.4722 17.9867 22.5674 18.5108C22.2854 18.74 22.054 19.0251 21.8878 19.3482C21.7216 19.6713 21.6241 20.0254 21.6017 20.3881C21.4221 21.73 21.4806 23.0932 21.7745 24.4148C22.4977 27.6397 23.7317 30.7284 25.4296 33.5639L25.4285 33.5617Z"
    fill="#00D8FF"
  />
</svg>